<?xml version="1.0" encoding="UTF-8"?>
<svg width="590px" height="666px" viewBox="0 0 590 666" version="1.1" xmlns="http://www.w3.org/2000/svg" xmlns:xlink="http://www.w3.org/1999/xlink">
    <!-- Generator: Sketch 49.3 (51167) - http://www.bohemiancoding.com/sketch -->
    <title>Artboard Copy 2</title>
    <desc>Created with Sketch.</desc>
    <defs>
        <linearGradient x1="100%" y1="50%" x2="0%" y2="50%" id="linearGradient-1">
            <stop stop-color="#E63A30" offset="0%"></stop>
            <stop stop-color="#FF5F59" offset="100%"></stop>
        </linearGradient>
        <linearGradient x1="50%" y1="0%" x2="50%" y2="100%" id="linearGradient-2">
            <stop stop-color="#28CA41" offset="0%"></stop>
            <stop stop-color="#28CA41" offset="100%"></stop>
        </linearGradient>
        <linearGradient x1="50%" y1="0%" x2="50%" y2="100%" id="linearGradient-3">
            <stop stop-color="#FFC12D" offset="0%"></stop>
            <stop stop-color="#DDA222" offset="100%"></stop>
        </linearGradient>
        <linearGradient x1="50%" y1="0%" x2="50%" y2="100%" id="linearGradient-4">
            <stop stop-color="#BBBBBB" offset="0%"></stop>
            <stop stop-color="#C8C8C8" offset="100%"></stop>
        </linearGradient>
    </defs>
    <g id="Artboard-Copy-2" stroke="none" stroke-width="1" fill="none" fill-rule="evenodd">
        <rect id="Rectangle-5" fill="#6C6D69" x="182" y="22" width="245" height="33"></rect>
        <rect id="Rectangle-2" fill="#272622" x="-1" y="55" width="591" height="590"></rect>
        <rect id="Rectangle-6" fill="#D8D8D8" x="-1" y="22" width="591" height="33"></rect>
        <g id="Group-Copy-3" transform="translate(214.000000, 356.000000)"></g>
        <g id="Group-4" transform="translate(22.000000, 80.000000)">
            <rect id="Rectangle" fill="#65D9EF" x="28" y="0" width="101" height="12" rx="3"></rect>
            <rect id="Rectangle-Copy-16" fill="#AE80FF" x="142" y="0" width="148" height="12" rx="3"></rect>
            <rect id="Rectangle-Copy-17" fill="#AE80FF" x="162" y="15" width="148" height="12" rx="3"></rect>
            <rect id="Rectangle-Copy-18" fill="#AE80FF" x="162" y="90" width="148" height="12" rx="3"></rect>
            <rect id="Rectangle-Copy-19" fill="#AE80FF" x="186" y="105" width="148" height="12" rx="3"></rect>
            <rect id="Rectangle-Copy-20" fill="#AE80FF" x="165" y="165" width="148" height="12" rx="3"></rect>
            <rect id="Rectangle-Copy-22" fill="#AE80FF" x="160" y="240" width="148" height="12" rx="3"></rect>
            <rect id="Rectangle-Copy-23" fill="#AE80FF" x="178" y="255" width="148" height="12" rx="3"></rect>
            <rect id="Rectangle-Copy-24" fill="#AE80FF" x="169" y="300" width="148" height="12" rx="3"></rect>
            <rect id="Rectangle-Copy-25" fill="#AE80FF" x="186" y="315" width="148" height="12" rx="3"></rect>
            <rect id="Rectangle-Copy-26" fill="#AE80FF" x="192" y="451" width="148" height="12" rx="3"></rect>
            <rect id="Rectangle-Copy-27" fill="#AE80FF" x="169" y="524" width="148" height="12" rx="3"></rect>
            <rect id="Rectangle-Copy-21" fill="#AE80FF" x="182" y="180" width="148" height="12" rx="3"></rect>
            <rect id="Rectangle-Copy" fill="#65D9EF" x="28" y="15" width="121" height="12" rx="3"></rect>
            <rect id="Rectangle-Copy-2" fill="#65D9EF" x="81" y="45" width="33" height="12" rx="3"></rect>
            <rect id="Rectangle-Copy-28" fill="#F92A72" x="4" y="45" width="63" height="12" rx="3"></rect>
            <rect id="Rectangle-Copy-29" fill="#F92A72" x="122" y="45" width="48" height="12" rx="3"></rect>
            <rect id="Rectangle-Copy-30" fill="#F92A72" x="306" y="46" width="66" height="12" rx="3"></rect>
            <g id="Group" transform="translate(25.000000, 61.000000)">
                <rect id="Rectangle-Copy-31" fill="#F92A72" x="0" y="0" width="31.6666667" height="12" rx="3"></rect>
                <rect id="Rectangle-Copy-32" fill="#A6E22E" x="0" y="14" width="45" height="12" rx="3"></rect>
            </g>
            <g id="Group-Copy" transform="translate(23.000000, 136.000000)">
                <rect id="Rectangle-Copy-31" fill="#F92A72" x="0" y="0" width="31.6666667" height="12" rx="3"></rect>
                <rect id="Rectangle-Copy-32" fill="#A6E22E" x="0" y="14" width="45" height="12" rx="3"></rect>
            </g>
            <g id="Group-Copy-2" transform="translate(0.000000, 211.000000)">
                <rect id="Rectangle-Copy-31" fill="#F92A72" x="23.0810811" y="0" width="31.3243243" height="12" rx="3"></rect>
                <rect id="Rectangle-Copy-33" fill="#F92A72" x="23.0810811" y="0" width="31.3243243" height="12" rx="3"></rect>
                <g id="Group-2" transform="translate(0.000000, 154.000000)" fill="#F92A72">
                    <g id="Group-3" transform="translate(1.648649, 0.000000)">
                        <rect id="Rectangle-Copy-34" x="0" y="0" width="31.3243243" height="12" rx="3"></rect>
                        <rect id="Rectangle-Copy-35" x="0" y="14" width="31.3243243" height="12" rx="3"></rect>
                    </g>
                    <g id="Group-3-Copy" transform="translate(0.000000, 116.000000)">
                        <rect id="Rectangle-Copy-34" x="0" y="0" width="31.3243243" height="12" rx="3"></rect>
                        <rect id="Rectangle-Copy-35" x="0" y="14" width="31.3243243" height="12" rx="3"></rect>
                    </g>
                    <rect id="Rectangle-Copy-36" x="1.64864865" y="28" width="31.3243243" height="12" rx="3"></rect>
                    <rect id="Rectangle-Copy-37" x="1.64864865" y="42" width="31.3243243" height="12" rx="3"></rect>
                    <rect id="Rectangle-Copy-38" x="1.64864865" y="56" width="57.7027027" height="12" rx="3"></rect>
                    <rect id="Rectangle-Copy-39" x="1.64864865" y="70" width="120.351351" height="12" rx="3"></rect>
                </g>
                <rect id="Rectangle-Copy-32" fill="#A6E22E" x="23.0810811" y="14" width="44.5135135" height="12" rx="3"></rect>
            </g>
            <rect id="Rectangle-Copy-32" fill="#A6E22E" x="27" y="284" width="74" height="12" rx="3"></rect>
            <rect id="Rectangle-Copy-3" fill="#65D9EF" x="186" y="45" width="101" height="12" rx="3"></rect>
            <rect id="Rectangle-Copy-4" fill="#65D9EF" x="51" y="90" width="101" height="12" rx="3"></rect>
            <rect id="Rectangle-Copy-9" fill="#65D9EF" x="48" y="165" width="101" height="12" rx="3"></rect>
            <rect id="Rectangle-Copy-10" fill="#65D9EF" x="49" y="240" width="101" height="12" rx="3"></rect>
            <rect id="Rectangle-Copy-11" fill="#65D9EF" x="49" y="300" width="101" height="12" rx="3"></rect>
            <rect id="Rectangle-Copy-5" fill="#65D9EF" x="49" y="105" width="125" height="12" rx="3"></rect>
            <rect id="Rectangle-Copy-6" fill="#65D9EF" x="48" y="180" width="125" height="12" rx="3"></rect>
            <rect id="Rectangle-Copy-7" fill="#65D9EF" x="49" y="255" width="125" height="12" rx="3"></rect>
            <rect id="Rectangle-Copy-8" fill="#65D9EF" x="51" y="315" width="125" height="12" rx="3"></rect>
            <rect id="Rectangle-Copy-12" fill="#65D9EF" x="23" y="451" width="159" height="12" rx="3"></rect>
            <rect id="Rectangle-Copy-13" fill="#65D9EF" x="23" y="509" width="124" height="12" rx="3"></rect>
            <rect id="Rectangle-Copy-14" fill="#65D9EF" x="157" y="509" width="58" height="12" rx="3"></rect>
            <rect id="Rectangle-Copy-15" fill="#65D9EF" x="25" y="524" width="135" height="12" rx="3"></rect>
        </g>
        <rect id="Rectangle-7" fill="#E4E4E4" x="0" y="0" width="591" height="24"></rect>
        <circle id="Oval-2" fill="url(#linearGradient-1)" cx="14" cy="11" r="6"></circle>
        <circle id="Oval-2-Copy" fill="url(#linearGradient-2)" cx="54" cy="11" r="6"></circle>
        <circle id="Oval-2-Copy-2" fill="url(#linearGradient-3)" cx="34" cy="11" r="6"></circle>
        <rect id="Rectangle-4" fill="#ABB1BA" x="0" y="645" width="594" height="22"></rect>
        <path d="M23.0413325,28 L162.007143,28 C163.607329,28 165.053534,28.9536744 165.683803,30.4245098 L176.603418,55.9071908 C177.473538,57.9377542 176.532812,60.2892221 174.502248,61.1593413 C174.000865,61.3741896 173.460837,61.4842189 172.915362,61.4826648 L10.0584566,61.0186851 C7.84932653,61.0123912 6.06357494,59.2164354 6.06986876,57.0073053 C6.07168345,56.3703501 6.22558439,55.7430377 6.51876597,55.1775646 L19.490246,30.1588633 C20.177899,28.8325547 21.5473575,28 23.0413325,28 Z" id="Rectangle-3" fill="#272622"></path>
        <circle id="Oval-2-Copy-3" fill="url(#linearGradient-4)" cx="158.5" cy="40.5" r="3.5"></circle>
    </g>
</svg>