<?xml version="1.0" encoding="UTF-8"?>
<svg width="784px" height="202px" viewBox="0 0 784 202" version="1.1" xmlns="http://www.w3.org/2000/svg" xmlns:xlink="http://www.w3.org/1999/xlink">
    <!-- Generator: Sketch 49.3 (51167) - http://www.bohemiancoding.com/sketch -->
    <title>Group 2</title>
    <desc>Created with Sketch.</desc>
    <defs></defs>
    <g id="Page-1" stroke="none" stroke-width="1" fill="none" fill-rule="evenodd">
        <g id="background" transform="translate(-291.000000, -248.000000)">
            <g id="Group-2" transform="translate(291.000000, 248.000000)">
                <g id="Group">
                    <circle id="Oval" fill="#BE1313" cx="101" cy="101" r="101"></circle>
                    <path d="M73.6387768,156.886667 C62.2050561,156.886667 57.0079103,152.467721 57.0079103,138.43107 C57.0079103,129.203271 58.3071968,124.394419 58.3071968,116.206372 C58.3071968,111.657457 55.5786952,106.848605 47.1333333,106.588667 L47.1333333,95.4113333 C55.5786952,95.1513953 58.3071968,90.3425426 58.3071968,85.7936279 C58.3071968,77.6055814 57.0079103,72.7967287 57.0079103,63.5689302 C57.0079103,49.5322791 62.2050561,45.1133333 73.6387768,45.1133333 L81.8242814,45.1133333 L81.8242814,55.2509147 L79.3556372,55.2509147 C74.0285627,55.2509147 72.469419,57.2004496 72.469419,64.3487442 C72.469419,71.3670698 72.9891336,77.6055814 72.9891336,85.5336899 C72.9891336,95.4113333 69.8708461,99.1804341 63.3744139,100.740062 L63.3744139,101.259938 C69.8708461,102.819566 72.9891336,106.588667 72.9891336,116.46631 C72.9891336,124.394419 72.469419,130.63293 72.469419,137.651256 C72.469419,144.79955 74.0285627,146.749085 79.3556372,146.749085 L81.8242814,146.749085 L81.8242814,156.886667 L73.6387768,156.886667 Z M119.502385,156.886667 L119.502385,146.749085 L121.97103,146.749085 C127.428033,146.749085 128.857248,144.79955 128.857248,137.651256 C128.857248,130.63293 128.337533,124.394419 128.337533,116.46631 C128.337533,106.588667 131.455821,102.819566 137.952253,101.259938 L137.952253,100.740062 C131.455821,99.1804341 128.337533,95.4113333 128.337533,85.5336899 C128.337533,77.6055814 128.857248,71.3670698 128.857248,64.3487442 C128.857248,57.2004496 127.428033,55.2509147 121.97103,55.2509147 L119.502385,55.2509147 L119.502385,45.1133333 L127.68789,45.1133333 C139.121611,45.1133333 144.318756,49.5322791 144.318756,63.5689302 C144.318756,72.7967287 143.01947,77.6055814 143.01947,85.7936279 C143.01947,90.3425426 145.747971,95.1513953 154.193333,95.4113333 L154.193333,106.588667 C145.747971,106.848605 143.01947,111.657457 143.01947,116.206372 C143.01947,124.394419 144.318756,129.203271 144.318756,138.43107 C144.318756,152.467721 139.121611,156.886667 127.68789,156.886667 L119.502385,156.886667 Z" id="{-}" fill="#FFFFFF"></path>
                </g>
                <g id="Group-3" transform="translate(237.000000, 24.000000)">
                    <path d="M296.808128,68.9609259 C291.860877,68.9609259 288.17469,65.0942593 288.17469,60.0675926 C288.17469,54.9442593 291.860877,51.0775926 296.808128,51.0775926 C301.755379,51.0775926 305.441567,54.9442593 305.441567,60.0675926 C305.441567,65.0942593 301.755379,68.9609259 296.808128,68.9609259 Z M329.88591,68.9609259 C317.954304,68.9609259 313.298067,61.5175926 313.298067,50.4009259 L313.298067,30.9709259 L306.701732,30.9709259 L306.701732,20.4342593 L314.074107,19.8542593 L315.72319,7.09425926 L327.557791,7.09425926 L327.557791,19.8542593 L339.101378,19.8542593 L339.101378,30.9709259 L327.557791,30.9709259 L327.557791,50.2075926 C327.557791,55.6209259 329.982915,57.8442593 333.766107,57.8442593 C335.318186,57.8442593 337.064274,57.3609259 338.325338,56.8775926 L340.556452,67.2209259 C338.034324,67.9942593 334.542146,68.9609259 329.88591,68.9609259 Z M367.231908,68.9609259 C355.009287,68.9609259 343.756716,59.7775926 343.756716,43.8275926 C343.756716,27.8775926 355.009287,18.6942593 367.231908,18.6942593 C379.357524,18.6942593 390.610095,27.8775926 390.610095,43.8275926 C390.610095,59.7775926 379.357524,68.9609259 367.231908,68.9609259 Z M367.231908,57.4575926 C373.052204,57.4575926 376.059356,52.1409259 376.059356,43.8275926 C376.059356,35.5142593 373.052204,30.1975926 367.231908,30.1975926 C361.314608,30.1975926 358.40446,35.5142593 358.40446,43.8275926 C358.40446,52.1409259 361.314608,57.4575926 367.231908,57.4575926 Z M400.212685,67.8009259 L400.212685,0.0375925926 L414.084389,0.0375925926 L414.084389,38.8975926 L414.472409,38.8975926 L429.702182,19.8542593 L445.222971,19.8542593 L428.344113,39.5742593 L446.484035,67.8009259 L431.060251,67.8009259 L420.1957,49.1442593 L414.084389,56.0075926 L414.084389,67.8009259 L400.212685,67.8009259 Z M458.511747,86.5542593 C455.601599,86.5542593 453.661501,86.1675926 451.721402,85.5875926 L454.24353,74.7609259 C455.116575,74.9542593 456.377639,75.3409259 457.444693,75.3409259 C462.197934,75.3409259 464.623058,72.8275926 465.884122,69.0575926 L466.563156,66.5442593 L448.035215,19.8542593 L462.391944,19.8542593 L469.279294,40.4442593 C470.637363,44.7942593 471.801422,49.3375926 473.062486,54.0742593 L473.450506,54.0742593 C474.51756,49.5309259 475.584614,44.9875926 476.748673,40.4442593 L482.568969,19.8542593 L496.246663,19.8542593 L479.561816,68.2842593 C475.002585,80.3675926 469.861324,86.5542593 458.511747,86.5542593 Z M523.407145,68.9609259 C511.184524,68.9609259 499.931952,59.7775926 499.931952,43.8275926 C499.931952,27.8775926 511.184524,18.6942593 523.407145,18.6942593 C535.53276,18.6942593 546.785332,27.8775926 546.785332,43.8275926 C546.785332,59.7775926 535.53276,68.9609259 523.407145,68.9609259 Z M523.407145,57.4575926 C529.22744,57.4575926 532.234593,52.1409259 532.234593,43.8275926 C532.234593,35.5142593 529.22744,30.1975926 523.407145,30.1975926 C517.489844,30.1975926 514.579696,35.5142593 514.579696,43.8275926 C514.579696,52.1409259 517.489844,57.4575926 523.407145,57.4575926 Z" id=".tokyo" fill="#787878"></path>
                    <path d="M23.8901576,68.9609259 C10.5034778,68.9609259 0.123950739,59.7775926 0.123950739,43.8275926 C0.123950739,27.8775926 11.8615468,18.6942593 25.1512217,18.6942593 C31.0685222,18.6942593 35.6277537,20.8209259 39.216936,23.8175926 L32.5235961,33.0009259 C30.1954778,31.0675926 28.2553793,30.1975926 26.024266,30.1975926 C19.1369163,30.1975926 14.7716946,35.5142593 14.7716946,43.8275926 C14.7716946,52.1409259 19.3309261,57.4575926 25.5392414,57.4575926 C28.643399,57.4575926 31.6505517,55.9109259 34.1726798,53.9775926 L39.7989655,63.2575926 C35.0457241,67.4142593 29.1284236,68.9609259 23.8901576,68.9609259 Z M65.9893974,68.9609259 C53.7667767,68.9609259 42.5142053,59.7775926 42.5142053,43.8275926 C42.5142053,27.8775926 53.7667767,18.6942593 65.9893974,18.6942593 C78.1150132,18.6942593 89.3675846,27.8775926 89.3675846,43.8275926 C89.3675846,59.7775926 78.1150132,68.9609259 65.9893974,68.9609259 Z M65.9893974,57.4575926 C71.809693,57.4575926 74.8168457,52.1409259 74.8168457,43.8275926 C74.8168457,35.5142593 71.809693,30.1975926 65.9893974,30.1975926 C60.0720969,30.1975926 57.1619491,35.5142593 57.1619491,43.8275926 C57.1619491,52.1409259 60.0720969,57.4575926 65.9893974,57.4575926 Z M116.140046,68.9609259 C104.20844,68.9609259 96.448046,59.4875926 96.448046,43.8275926 C96.448046,28.1675926 106.245544,18.6942593 116.431061,18.6942593 C121.766332,18.6942593 124.967494,20.6275926 128.265662,23.7209259 L127.683632,16.3742593 L127.683632,0.0375925926 L141.943356,0.0375925926 L141.943356,67.8009259 L130.302765,67.8009259 L129.332716,63.0642593 L128.944696,63.0642593 C125.549524,66.4475926 120.796282,68.9609259 116.140046,68.9609259 Z M119.826233,57.3609259 C122.930391,57.3609259 125.355514,56.2009259 127.683632,53.0109259 L127.683632,33.3875926 C125.161504,31.0675926 122.348361,30.2942593 119.729228,30.2942593 C115.169997,30.2942593 111.09579,34.5475926 111.09579,43.6342593 C111.09579,53.1075926 114.296952,57.3609259 119.826233,57.3609259 Z M175.894182,68.9609259 C162.119483,68.9609259 151.545946,59.6809259 151.545946,43.8275926 C151.545946,28.2642593 162.701512,18.6942593 174.245099,18.6942593 C187.922793,18.6942593 194.713138,28.6509259 194.713138,41.7009259 C194.713138,44.2142593 194.422123,46.8242593 194.131108,47.9842593 L165.320645,47.9842593 C166.581709,54.9442593 171.431956,58.1342593 177.834281,58.1342593 C181.423463,58.1342593 184.721631,57.0709259 188.213808,54.9442593 L192.967049,63.5475926 C188.019798,66.9309259 181.617473,68.9609259 175.894182,68.9609259 Z M165.22364,38.6075926 L182.587522,38.6075926 C182.587522,33.2909259 180.259404,29.5209259 174.536113,29.5209259 C170.073887,29.5209259 166.19369,32.5175926 165.22364,38.6075926 Z M204.412732,67.8009259 L204.412732,19.8542593 L216.053324,19.8542593 L217.023373,28.2642593 L217.411393,28.2642593 C220.90357,21.7875926 226.141836,18.6942593 231.089087,18.6942593 C233.805225,18.6942593 235.454309,19.0809259 236.812378,19.6609259 L234.48426,31.9375926 C232.738171,31.4542593 231.283097,31.1642593 229.245994,31.1642593 C225.656811,31.1642593 221.194585,33.4842593 218.672457,39.9609259 L218.672457,67.8009259 L204.412732,67.8009259 Z M256.212465,68.9609259 C249.907145,68.9609259 242.631775,66.2542593 237.781529,62.2909259 L244.183854,53.3975926 C248.549076,56.6842593 252.526278,58.4242593 256.600485,58.4242593 C260.868701,58.4242593 262.711795,56.8775926 262.711795,54.3642593 C262.711795,51.1742593 257.861549,49.7242593 252.914297,47.7909259 C247.094002,45.5675926 240.206652,41.6042593 240.206652,33.6775926 C240.206652,24.7842593 247.482021,18.6942593 258.637588,18.6942593 C266.009962,18.6942593 271.442238,21.6909259 275.61345,24.7842593 L269.211125,33.2909259 C265.718948,30.7775926 262.42078,29.2309259 259.025608,29.2309259 C255.33942,29.2309259 253.593332,30.5842593 253.593332,33.0009259 C253.593332,36.0942593 258.055558,37.2542593 263.00281,39.0909259 C269.11412,41.3142593 276.00147,44.6975926 276.00147,53.4942593 C276.00147,62.1942593 269.11412,68.9609259 256.212465,68.9609259 Z" id="coders" fill="#6DB593"></path>
                    <path d="M8.12146798,135.601852 L8.12146798,112.917407 L0.404187192,112.917407 L0.404187192,107.59 L22.2195172,107.59 L22.2195172,112.917407 L14.5022365,112.917407 L14.5022365,135.601852 L8.12146798,135.601852 Z M36.6400181,136.117407 C29.0520772,136.117407 23.8784811,130.618148 23.8784811,121.467037 C23.8784811,112.315926 29.0520772,107.074444 36.6400181,107.074444 C44.227959,107.074444 49.401555,112.358889 49.401555,121.467037 C49.401555,130.618148 44.227959,136.117407 36.6400181,136.117407 Z M36.6400181,130.661111 C40.4771018,130.661111 42.8914467,127.095185 42.8914467,121.467037 C42.8914467,115.881852 40.4771018,112.530741 36.6400181,112.530741 C32.8029343,112.530741 30.3885895,115.881852 30.3885895,121.467037 C30.3885895,127.095185 32.8029343,130.661111 36.6400181,130.661111 Z M66.9262135,136.117407 C59.2089327,136.117407 53.1730707,131.176667 53.1730707,121.767778 C53.1730707,112.487778 59.3813859,107.074444 66.8831002,107.074444 C70.9357505,107.074444 73.8674549,108.835926 75.7213268,110.726296 L72.4016027,114.764815 C70.9788638,113.518889 69.5130115,112.530741 67.0986667,112.530741 C62.7442234,112.530741 59.683179,115.924815 59.683179,121.552963 C59.683179,127.31 62.3130904,130.661111 67.572913,130.661111 C68.7369721,130.661111 69.9010312,130.36037 70.5908441,129.801852 L70.5908441,124.99 L65.9346076,124.99 L65.9346076,119.834444 L76.1955731,119.834444 L76.1955731,132.723333 C74.2554746,134.613704 70.8495239,136.117407 66.9262135,136.117407 Z M81.8209607,135.601852 L81.8209607,107.59 L99.4111873,107.59 L99.4111873,112.917407 L88.1586158,112.917407 L88.1586158,118.545556 L97.7297685,118.545556 L97.7297685,123.83 L88.1586158,123.83 L88.1586158,130.274444 L99.8423203,130.274444 L99.8423203,135.601852 L81.8209607,135.601852 Z M110.72753,135.601852 L110.72753,112.917407 L103.01025,112.917407 L103.01025,107.59 L124.82558,107.59 L124.82558,112.917407 L117.108299,112.917407 L117.108299,135.601852 L110.72753,135.601852 Z M129.028228,135.601852 L129.028228,107.59 L135.365884,107.59 L135.365884,118.373704 L145.066376,118.373704 L145.066376,107.59 L151.447145,107.59 L151.447145,135.601852 L145.066376,135.601852 L145.066376,123.915926 L135.365884,123.915926 L135.365884,135.601852 L129.028228,135.601852 Z M157.891685,135.601852 L157.891685,107.59 L175.481911,107.59 L175.481911,112.917407 L164.22934,112.917407 L164.22934,118.545556 L173.800493,118.545556 L173.800493,123.83 L164.22934,123.83 L164.22934,130.274444 L175.913044,130.274444 L175.913044,135.601852 L157.891685,135.601852 Z M181.322866,135.601852 L181.322866,107.59 L191.454491,107.59 C197.404127,107.59 202.27593,109.652222 202.27593,116.311481 C202.27593,120.435926 200.292718,123.056667 197.274787,124.388519 L203.655555,135.601852 L196.541861,135.601852 L191.152698,125.505556 L187.660521,125.505556 L187.660521,135.601852 L181.322866,135.601852 Z M187.660521,120.478889 L190.937132,120.478889 C194.256856,120.478889 196.067614,119.061111 196.067614,116.311481 C196.067614,113.561852 194.256856,112.616667 190.937132,112.616667 L187.660521,112.616667 L187.660521,120.478889 Z M225.392742,136.117407 C219.443107,136.117407 214.829984,132.035926 214.829984,124.947037 C214.829984,117.858148 220.046693,113.776667 225.953215,113.776667 C228.583127,113.776667 230.609452,114.721852 232.204644,116.053704 L229.229826,120.135185 C228.195107,119.275926 227.332841,118.889259 226.341235,118.889259 C223.280191,118.889259 221.340092,121.252222 221.340092,124.947037 C221.340092,128.641852 223.366417,131.004815 226.125669,131.004815 C227.505294,131.004815 228.841806,130.317407 229.962752,129.458148 L232.463324,133.582593 C230.350772,135.43 227.720861,136.117407 225.392742,136.117407 Z M243.995233,136.117407 C238.562958,136.117407 233.561815,132.035926 233.561815,124.947037 C233.561815,117.858148 238.562958,113.776667 243.995233,113.776667 C249.384396,113.776667 254.385539,117.858148 254.385539,124.947037 C254.385539,132.035926 249.384396,136.117407 243.995233,136.117407 Z M243.995233,131.004815 C246.582031,131.004815 247.918544,128.641852 247.918544,124.947037 C247.918544,121.252222 246.582031,118.889259 243.995233,118.889259 C241.365322,118.889259 240.071923,121.252222 240.071923,124.947037 C240.071923,128.641852 241.365322,131.004815 243.995233,131.004815 Z M266.176128,136.117407 C260.873192,136.117407 257.424128,131.907037 257.424128,124.947037 C257.424128,117.987037 261.778572,113.776667 266.305468,113.776667 C268.6767,113.776667 270.099439,114.635926 271.565291,116.010741 L271.306611,112.745556 L271.306611,105.484815 L277.644266,105.484815 L277.644266,135.601852 L272.47067,135.601852 L272.039537,133.496667 L271.867084,133.496667 C270.358118,135.00037 268.245567,136.117407 266.176128,136.117407 Z M267.814434,130.961852 C269.194059,130.961852 270.271892,130.446296 271.306611,129.028519 L271.306611,120.307037 C270.185665,119.275926 268.93538,118.932222 267.77132,118.932222 C265.744995,118.932222 263.934237,120.822593 263.934237,124.861111 C263.934237,129.071481 265.356976,130.961852 267.814434,130.961852 Z M283.054087,135.601852 L283.054087,114.292222 L289.391742,114.292222 L289.391742,135.601852 L283.054087,135.601852 Z M286.201358,111.155926 C284.088807,111.155926 282.536728,109.781111 282.536728,107.847778 C282.536728,105.914444 284.088807,104.582593 286.201358,104.582593 C288.357023,104.582593 289.865989,105.914444 289.865989,107.847778 C289.865989,109.781111 288.357023,111.155926 286.201358,111.155926 Z M294.75845,135.601852 L294.75845,114.292222 L299.932046,114.292222 L300.363179,116.998889 L300.535632,116.998889 C302.346391,115.28037 304.502056,113.776667 307.390647,113.776667 C312.046884,113.776667 314.030096,117.041852 314.030096,122.369259 L314.030096,135.601852 L307.69244,135.601852 L307.69244,123.185556 C307.69244,120.092222 306.873288,119.147037 305.062529,119.147037 C303.467337,119.147037 302.475731,119.877407 301.096105,121.209259 L301.096105,135.601852 L294.75845,135.601852 Z M326.855404,144.667037 C321.854261,144.667037 317.887838,143.034444 317.887838,139.253704 C317.887838,137.492222 318.96567,136.074444 320.948882,134.957407 L320.948882,134.785556 C319.827936,134.055185 318.96567,132.938148 318.96567,131.176667 C318.96567,129.63 320.000389,128.126296 321.380015,127.181111 L321.380015,127.009259 C319.87105,125.978148 318.491424,123.958889 318.491424,121.467037 C318.491424,116.354444 322.716527,113.776667 327.329651,113.776667 C328.536823,113.776667 329.700882,113.948519 330.649375,114.292222 L338.452882,114.292222 L338.452882,118.889259 L335.046931,118.889259 C335.434951,119.533704 335.736744,120.564815 335.736744,121.681852 C335.736744,126.57963 332.029,128.856667 327.329651,128.856667 C326.553611,128.856667 325.691345,128.727778 324.742853,128.427037 C324.18238,128.89963 323.966813,129.286296 323.966813,130.016667 C323.966813,131.090741 324.829079,131.606296 327.200311,131.606296 L330.649375,131.606296 C335.909197,131.606296 338.797789,133.195926 338.797789,137.01963 C338.797789,141.444815 334.184665,144.667037 326.855404,144.667037 Z M327.329651,125.032963 C329.011069,125.032963 330.261355,123.83 330.261355,121.467037 C330.261355,119.232963 329.011069,118.03 327.329651,118.03 C325.648232,118.03 324.397946,119.19 324.397946,121.467037 C324.397946,123.83 325.648232,125.032963 327.329651,125.032963 Z M327.84701,140.714444 C330.692488,140.714444 332.761926,139.554444 332.761926,138.093704 C332.761926,136.761852 331.597867,136.418148 329.485316,136.418148 L327.286537,136.418148 C325.820685,136.418148 324.958419,136.332222 324.268606,136.16037 C323.492567,136.847778 323.104547,137.492222 323.104547,138.265556 C323.104547,139.855185 325.001532,140.714444 327.84701,140.714444 Z M358.714337,136.117407 C353.411401,136.117407 351.341963,132.809259 351.341963,127.868519 L351.341963,119.232963 L348.410258,119.232963 L348.410258,114.55 L351.686869,114.292222 L352.419795,108.621111 L357.679618,108.621111 L357.679618,114.292222 L362.810101,114.292222 L362.810101,119.232963 L357.679618,119.232963 L357.679618,127.782593 C357.679618,130.188519 358.75745,131.176667 360.438869,131.176667 C361.128682,131.176667 361.904721,130.961852 362.465194,130.747037 L363.4568,135.344074 C362.335854,135.687778 360.783775,136.117407 358.714337,136.117407 Z M366.797183,135.601852 L366.797183,105.484815 L373.134838,105.484815 L373.134838,112.874444 L372.833045,116.698148 C374.428237,115.28037 376.540789,113.776667 379.42938,113.776667 C384.085616,113.776667 386.068828,117.041852 386.068828,122.369259 L386.068828,135.601852 L379.731173,135.601852 L379.731173,123.185556 C379.731173,120.092222 378.91202,119.147037 377.101261,119.147037 C375.506069,119.147037 374.514463,119.877407 373.134838,121.209259 L373.134838,135.601852 L366.797183,135.601852 Z M400.791122,136.117407 C394.669033,136.117407 389.969684,131.992963 389.969684,124.947037 C389.969684,118.03 394.927713,113.776667 400.058196,113.776667 C406.137171,113.776667 409.155102,118.201852 409.155102,124.001852 C409.155102,125.118889 409.025762,126.278889 408.896422,126.794444 L396.091772,126.794444 C396.652245,129.887778 398.80791,131.305556 401.653388,131.305556 C403.24858,131.305556 404.714432,130.832963 406.266511,129.887778 L408.379063,133.711481 C406.180284,135.215185 403.334807,136.117407 400.791122,136.117407 Z M396.048659,122.627037 L403.76594,122.627037 C403.76594,120.264074 402.73122,118.588519 400.187536,118.588519 C398.204324,118.588519 396.479792,119.92037 396.048659,122.627037 Z M422.863335,135.601852 L422.863335,119.232963 L420.017858,119.232963 L420.017858,114.55 L422.863335,114.335185 L422.863335,113.175185 C422.863335,108.664074 424.975887,104.969259 430.753069,104.969259 C432.520715,104.969259 434.072794,105.398889 435.021286,105.742593 L433.857227,110.382593 C433.124301,110.124815 432.348262,109.952963 431.658449,109.952963 C430.10637,109.952963 429.200991,110.812222 429.200991,113.003333 L429.200991,114.292222 L433.038074,114.292222 L433.038074,119.232963 L429.200991,119.232963 L429.200991,135.601852 L422.863335,135.601852 Z M442.716112,136.117407 C438.059876,136.117407 436.076664,132.852222 436.076664,127.524815 L436.076664,114.292222 L442.414319,114.292222 L442.414319,126.708519 C442.414319,129.758889 443.233472,130.747037 445.087344,130.747037 C446.682536,130.747037 447.631028,130.05963 448.881314,128.384074 L448.881314,114.292222 L455.218969,114.292222 L455.218969,135.601852 L450.045373,135.601852 L449.571127,132.637407 L449.441787,132.637407 C447.631028,134.785556 445.647817,136.117407 442.716112,136.117407 Z M468.820317,136.117407 C463.517381,136.117407 461.447943,132.809259 461.447943,127.868519 L461.447943,119.232963 L458.516239,119.232963 L458.516239,114.55 L461.792849,114.292222 L462.525776,108.621111 L467.785598,108.621111 L467.785598,114.292222 L472.916081,114.292222 L472.916081,119.232963 L467.785598,119.232963 L467.785598,127.782593 C467.785598,130.188519 468.863431,131.176667 470.544849,131.176667 C471.234662,131.176667 472.010702,130.961852 472.571175,130.747037 L473.56278,135.344074 C472.441835,135.687778 470.889756,136.117407 468.820317,136.117407 Z M483.327045,136.117407 C478.670808,136.117407 476.687597,132.852222 476.687597,127.524815 L476.687597,114.292222 L483.025252,114.292222 L483.025252,126.708519 C483.025252,129.758889 483.844404,130.747037 485.698276,130.747037 C487.293469,130.747037 488.241961,130.05963 489.492247,128.384074 L489.492247,114.292222 L495.829902,114.292222 L495.829902,135.601852 L490.656306,135.601852 L490.18206,132.637407 L490.05272,132.637407 C488.241961,134.785556 486.258749,136.117407 483.327045,136.117407 Z M501.19661,135.601852 L501.19661,114.292222 L506.370206,114.292222 L506.801339,118.03 L506.973792,118.03 C508.525871,115.151481 510.853989,113.776667 513.052767,113.776667 C514.25994,113.776667 514.992866,113.948519 515.596452,114.206296 L514.561733,119.662593 C513.785694,119.447778 513.138994,119.318889 512.233615,119.318889 C510.638423,119.318889 508.655211,120.35 507.534265,123.228519 L507.534265,135.601852 L501.19661,135.601852 Z M527.300815,136.117407 C521.178726,136.117407 516.479377,131.992963 516.479377,124.947037 C516.479377,118.03 521.437406,113.776667 526.567889,113.776667 C532.646864,113.776667 535.664795,118.201852 535.664795,124.001852 C535.664795,125.118889 535.535455,126.278889 535.406116,126.794444 L522.601465,126.794444 C523.161938,129.887778 525.317603,131.305556 528.163081,131.305556 C529.758273,131.305556 531.224125,130.832963 532.776204,129.887778 L534.888756,133.711481 C532.689978,135.215185 529.8445,136.117407 527.300815,136.117407 Z M522.558352,122.627037 L530.275633,122.627037 C530.275633,120.264074 529.240914,118.588519 526.697229,118.588519 C524.714017,118.588519 522.989485,119.92037 522.558352,122.627037 Z" id="TOGETHER,-coding-the" fill="#787878"></path>
                    <path d="M8.12146798,135.601852 L8.12146798,112.917407 L0.404187192,112.917407 L0.404187192,107.59 L22.2195172,107.59 L22.2195172,112.917407 L14.5022365,112.917407 L14.5022365,135.601852 L8.12146798,135.601852 Z M36.6400181,136.117407 C29.0520772,136.117407 23.8784811,130.618148 23.8784811,121.467037 C23.8784811,112.315926 29.0520772,107.074444 36.6400181,107.074444 C44.227959,107.074444 49.401555,112.358889 49.401555,121.467037 C49.401555,130.618148 44.227959,136.117407 36.6400181,136.117407 Z M36.6400181,130.661111 C40.4771018,130.661111 42.8914467,127.095185 42.8914467,121.467037 C42.8914467,115.881852 40.4771018,112.530741 36.6400181,112.530741 C32.8029343,112.530741 30.3885895,115.881852 30.3885895,121.467037 C30.3885895,127.095185 32.8029343,130.661111 36.6400181,130.661111 Z M66.9262135,136.117407 C59.2089327,136.117407 53.1730707,131.176667 53.1730707,121.767778 C53.1730707,112.487778 59.3813859,107.074444 66.8831002,107.074444 C70.9357505,107.074444 73.8674549,108.835926 75.7213268,110.726296 L72.4016027,114.764815 C70.9788638,113.518889 69.5130115,112.530741 67.0986667,112.530741 C62.7442234,112.530741 59.683179,115.924815 59.683179,121.552963 C59.683179,127.31 62.3130904,130.661111 67.572913,130.661111 C68.7369721,130.661111 69.9010312,130.36037 70.5908441,129.801852 L70.5908441,124.99 L65.9346076,124.99 L65.9346076,119.834444 L76.1955731,119.834444 L76.1955731,132.723333 C74.2554746,134.613704 70.8495239,136.117407 66.9262135,136.117407 Z M81.8209607,135.601852 L81.8209607,107.59 L99.4111873,107.59 L99.4111873,112.917407 L88.1586158,112.917407 L88.1586158,118.545556 L97.7297685,118.545556 L97.7297685,123.83 L88.1586158,123.83 L88.1586158,130.274444 L99.8423203,130.274444 L99.8423203,135.601852 L81.8209607,135.601852 Z M110.72753,135.601852 L110.72753,112.917407 L103.01025,112.917407 L103.01025,107.59 L124.82558,107.59 L124.82558,112.917407 L117.108299,112.917407 L117.108299,135.601852 L110.72753,135.601852 Z M129.028228,135.601852 L129.028228,107.59 L135.365884,107.59 L135.365884,118.373704 L145.066376,118.373704 L145.066376,107.59 L151.447145,107.59 L151.447145,135.601852 L145.066376,135.601852 L145.066376,123.915926 L135.365884,123.915926 L135.365884,135.601852 L129.028228,135.601852 Z M157.891685,135.601852 L157.891685,107.59 L175.481911,107.59 L175.481911,112.917407 L164.22934,112.917407 L164.22934,118.545556 L173.800493,118.545556 L173.800493,123.83 L164.22934,123.83 L164.22934,130.274444 L175.913044,130.274444 L175.913044,135.601852 L157.891685,135.601852 Z M181.322866,135.601852 L181.322866,107.59 L191.454491,107.59 C197.404127,107.59 202.27593,109.652222 202.27593,116.311481 C202.27593,120.435926 200.292718,123.056667 197.274787,124.388519 L203.655555,135.601852 L196.541861,135.601852 L191.152698,125.505556 L187.660521,125.505556 L187.660521,135.601852 L181.322866,135.601852 Z M187.660521,120.478889 L190.937132,120.478889 C194.256856,120.478889 196.067614,119.061111 196.067614,116.311481 C196.067614,113.561852 194.256856,112.616667 190.937132,112.616667 L187.660521,112.616667 L187.660521,120.478889 Z" id="TOGETHER" fill="#6DB593"></path>
                </g>
            </g>
        </g>
    </g>
</svg>