<?xml version="1.0" encoding="UTF-8"?>
<svg width="1366px" height="698px" viewBox="0 0 1366 698" version="1.1" xmlns="http://www.w3.org/2000/svg" xmlns:xlink="http://www.w3.org/1999/xlink" style="background: #F7F6F1;">
    <!-- Generator: Sketch 49.3 (51167) - http://www.bohemiancoding.com/sketch -->
    <title>background copy</title>
    <desc>Created with Sketch.</desc>
    <defs></defs>
    <g id="background-copy" stroke="none" stroke-width="1" fill="none" fill-rule="evenodd">
        <g id="Group-6" transform="translate(410.000000, 279.000000)">
            <g id="Group-4" transform="translate(474.000000, 8.000000)" fill="#BE1313">
                <g id="Group-3" transform="translate(0.867347, 0.653061)">
                    <g id="Group-2-Copy-2" transform="translate(0.000000, 0.000000)">
                        <polygon id="Rectangle-17" points="0 0 13.6903633 0 63 75 49.1310654 75"></polygon>
                        <polygon id="Rectangle-17-Copy-2" points="63 0 13.8689346 75 0 75 49.3096367 0"></polygon>
                    </g>
                </g>
            </g>
            <g id="Group-5">
                <g id="Group" fill="#BE1313">
                    <circle id="Oval" cx="78" cy="78" r="78"></circle>
                </g>
                <g id="Group-2" transform="translate(53.000000, 43.000000)" fill="#FFFFFF">
                    <polygon id="Rectangle-17" points="0 0 8.66477493 0 54 71 45.3352251 71"></polygon>
                    <polygon id="Rectangle-17-Copy" transform="translate(27.000000, 35.500000) scale(-1, 1) translate(-27.000000, -35.500000) " points="0 0 8.66477493 0 54 71 45.3352251 71"></polygon>
                </g>
            </g>
            <path d="M212.819,82.188 C199.157,82.188 188.564,72.783 188.564,56.448 C188.564,40.113 200.543,30.708 214.106,30.708 C220.145,30.708 224.798,32.886 228.461,35.955 L221.63,45.36 C219.254,43.38 217.274,42.489 214.997,42.489 C207.968,42.489 203.513,47.934 203.513,56.448 C203.513,64.962 208.166,70.407 214.502,70.407 C217.67,70.407 220.739,68.823 223.313,66.843 L229.055,76.347 C224.204,80.604 218.165,82.188 212.819,82.188 Z M255.153,82.188 C242.679,82.188 231.195,72.783 231.195,56.448 C231.195,40.113 242.679,30.708 255.153,30.708 C267.528,30.708 279.012,40.113 279.012,56.448 C279.012,72.783 267.528,82.188 255.153,82.188 Z M255.153,70.407 C261.093,70.407 264.162,64.962 264.162,56.448 C264.162,47.934 261.093,42.489 255.153,42.489 C249.114,42.489 246.144,47.934 246.144,56.448 C246.144,64.962 249.114,70.407 255.153,70.407 Z M305.704,82.188 C293.527,82.188 285.607,72.486 285.607,56.448 C285.607,40.41 295.606,30.708 306.001,30.708 C311.446,30.708 314.713,32.688 318.079,35.856 L317.485,28.332 L317.485,11.601 L332.038,11.601 L332.038,81 L320.158,81 L319.168,76.149 L318.772,76.149 C315.307,79.614 310.456,82.188 305.704,82.188 Z M309.466,70.308 C312.634,70.308 315.109,69.12 317.485,65.853 L317.485,45.756 C314.911,43.38 312.04,42.588 309.367,42.588 C304.714,42.588 300.556,46.944 300.556,56.25 C300.556,65.952 303.823,70.308 309.466,70.308 Z M366.056,82.188 C351.998,82.188 341.207,72.684 341.207,56.448 C341.207,40.509 352.592,30.708 364.373,30.708 C378.332,30.708 385.262,40.905 385.262,54.27 C385.262,56.844 384.965,59.517 384.668,60.705 L355.265,60.705 C356.552,67.833 361.502,71.1 368.036,71.1 C371.699,71.1 375.065,70.011 378.629,67.833 L383.48,76.644 C378.431,80.109 371.897,82.188 366.056,82.188 Z M355.166,51.102 L372.887,51.102 C372.887,45.657 370.511,41.796 364.67,41.796 C360.116,41.796 356.156,44.865 355.166,51.102 Z M394.53,81 L394.53,31.896 L406.41,31.896 L407.4,40.509 L407.796,40.509 C411.36,33.876 416.706,30.708 421.755,30.708 C424.527,30.708 426.21,31.104 427.596,31.698 L425.22,44.271 C423.438,43.776 421.953,43.479 419.874,43.479 C416.211,43.479 411.657,45.855 409.083,52.488 L409.083,81 L394.53,81 Z M446.764,82.188 C440.329,82.188 432.904,79.416 427.954,75.357 L434.488,66.249 C438.943,69.615 443.002,71.397 447.16,71.397 C451.516,71.397 453.397,69.813 453.397,67.239 C453.397,63.972 448.447,62.487 443.398,60.507 C437.458,58.23 430.429,54.171 430.429,46.053 C430.429,36.945 437.854,30.708 449.239,30.708 C456.763,30.708 462.307,33.777 466.564,36.945 L460.03,45.657 C456.466,43.083 453.1,41.499 449.635,41.499 C445.873,41.499 444.091,42.885 444.091,45.36 C444.091,48.528 448.645,49.716 453.694,51.597 C459.931,53.874 466.96,57.339 466.96,66.348 C466.96,75.258 459.931,82.188 446.764,82.188 Z" id="coders" fill="#787878"></path>
            <path d="M188.311,144 L188.311,115.964 L198.416,115.964 C204.35,115.964 209.209,118.028 209.209,124.693 C209.209,128.821 207.231,131.444 204.221,132.777 L210.585,144 L203.49,144 L198.115,133.895 L194.632,133.895 L194.632,144 L188.311,144 Z M194.632,128.864 L197.9,128.864 C201.211,128.864 203.017,127.445 203.017,124.693 C203.017,121.941 201.211,120.995 197.9,120.995 L194.632,120.995 L194.632,128.864 Z M222.909495,144.516 C216.803495,144.516 212.116495,140.388 212.116495,133.336 C212.116495,126.413 217.061495,122.156 222.178495,122.156 C228.241495,122.156 231.251495,126.585 231.251495,132.39 C231.251495,133.508 231.122495,134.669 230.993495,135.185 L218.222495,135.185 C218.781495,138.281 220.931495,139.7 223.769495,139.7 C225.360495,139.7 226.822495,139.227 228.370495,138.281 L230.477495,142.108 C228.284495,143.613 225.446495,144.516 222.909495,144.516 Z M218.179495,131.014 L225.876495,131.014 C225.876495,128.649 224.844495,126.972 222.307495,126.972 C220.329495,126.972 218.609495,128.305 218.179495,131.014 Z M242.88799,144.516 C237.59899,144.516 234.15899,140.302 234.15899,133.336 C234.15899,126.37 238.50199,122.156 243.01699,122.156 C245.38199,122.156 246.80099,123.016 248.26299,124.392 L248.00499,121.124 L248.00499,113.857 L254.32599,113.857 L254.32599,144 L249.16599,144 L248.73599,141.893 L248.56399,141.893 C247.05899,143.398 244.95199,144.516 242.88799,144.516 Z M244.52199,139.356 C245.89799,139.356 246.97299,138.84 248.00499,137.421 L248.00499,128.692 C246.88699,127.66 245.63999,127.316 244.47899,127.316 C242.45799,127.316 240.65199,129.208 240.65199,133.25 C240.65199,137.464 242.07099,139.356 244.52199,139.356 Z M269.101485,144.516 C262.995485,144.516 258.308485,140.388 258.308485,133.336 C258.308485,126.413 263.253485,122.156 268.370485,122.156 C274.433485,122.156 277.443485,126.585 277.443485,132.39 C277.443485,133.508 277.314485,134.669 277.185485,135.185 L264.414485,135.185 C264.973485,138.281 267.123485,139.7 269.961485,139.7 C271.552485,139.7 273.014485,139.227 274.562485,138.281 L276.669485,142.108 C274.476485,143.613 271.638485,144.516 269.101485,144.516 Z M264.371485,131.014 L272.068485,131.014 C272.068485,128.649 271.036485,126.972 268.499485,126.972 C266.521485,126.972 264.801485,128.305 264.371485,131.014 Z M282.328979,144 L282.328979,127.617 L279.490979,127.617 L279.490979,122.93 L282.328979,122.715 L282.328979,121.554 C282.328979,117.039 284.435979,113.341 290.197979,113.341 C291.960979,113.341 293.508979,113.771 294.454979,114.115 L293.293979,118.759 C292.562979,118.501 291.788979,118.329 291.100979,118.329 C289.552979,118.329 288.649979,119.189 288.649979,121.382 L288.649979,122.672 L292.476979,122.672 L292.476979,127.617 L288.649979,127.617 L288.649979,144 L282.328979,144 Z M295.556474,144 L295.556474,122.672 L301.877474,122.672 L301.877474,144 L295.556474,144 Z M298.695474,119.533 C296.588474,119.533 295.040474,118.157 295.040474,116.222 C295.040474,114.287 296.588474,112.954 298.695474,112.954 C300.845474,112.954 302.350474,114.287 302.350474,116.222 C302.350474,118.157 300.845474,119.533 298.695474,119.533 Z M307.063969,144 L307.063969,122.672 L312.223969,122.672 L312.653969,125.381 L312.825969,125.381 C314.631969,123.661 316.781969,122.156 319.662969,122.156 C324.306969,122.156 326.284969,125.424 326.284969,130.756 L326.284969,144 L319.963969,144 L319.963969,131.573 C319.963969,128.477 319.146969,127.531 317.340969,127.531 C315.749969,127.531 314.760969,128.262 313.384969,129.595 L313.384969,144 L307.063969,144 Z M340.845464,144.516 C334.739464,144.516 330.052464,140.388 330.052464,133.336 C330.052464,126.413 334.997464,122.156 340.114464,122.156 C346.177464,122.156 349.187464,126.585 349.187464,132.39 C349.187464,133.508 349.058464,134.669 348.929464,135.185 L336.158464,135.185 C336.717464,138.281 338.867464,139.7 341.705464,139.7 C343.296464,139.7 344.758464,139.227 346.306464,138.281 L348.413464,142.108 C346.220464,143.613 343.382464,144.516 340.845464,144.516 Z M336.115464,131.014 L343.812464,131.014 C343.812464,128.649 342.780464,126.972 340.243464,126.972 C338.265464,126.972 336.545464,128.305 336.115464,131.014 Z M370.998454,144.516 C364.892454,144.516 360.205454,140.388 360.205454,133.336 C360.205454,126.413 365.150454,122.156 370.267454,122.156 C376.330454,122.156 379.340454,126.585 379.340454,132.39 C379.340454,133.508 379.211454,134.669 379.082454,135.185 L366.311454,135.185 C366.870454,138.281 369.020454,139.7 371.858454,139.7 C373.449454,139.7 374.911454,139.227 376.459454,138.281 L378.566454,142.108 C376.373454,143.613 373.535454,144.516 370.998454,144.516 Z M366.268454,131.014 L373.965454,131.014 C373.965454,128.649 372.933454,126.972 370.396454,126.972 C368.418454,126.972 366.698454,128.305 366.268454,131.014 Z M390.976949,144.516 C385.687949,144.516 382.247949,140.302 382.247949,133.336 C382.247949,126.37 386.590949,122.156 391.105949,122.156 C393.470949,122.156 394.889949,123.016 396.351949,124.392 L396.093949,121.124 L396.093949,113.857 L402.414949,113.857 L402.414949,144 L397.254949,144 L396.824949,141.893 L396.652949,141.893 C395.147949,143.398 393.040949,144.516 390.976949,144.516 Z M392.610949,139.356 C393.986949,139.356 395.061949,138.84 396.093949,137.421 L396.093949,128.692 C394.975949,127.66 393.728949,127.316 392.567949,127.316 C390.546949,127.316 388.740949,129.208 388.740949,133.25 C388.740949,137.464 390.159949,139.356 392.610949,139.356 Z M414.051444,144.516 C409.407444,144.516 407.429444,141.248 407.429444,135.916 L407.429444,122.672 L413.750444,122.672 L413.750444,135.099 C413.750444,138.152 414.567444,139.141 416.416444,139.141 C418.007444,139.141 418.953444,138.453 420.200444,136.776 L420.200444,122.672 L426.521444,122.672 L426.521444,144 L421.361444,144 L420.888444,141.033 L420.759444,141.033 C418.953444,143.183 416.975444,144.516 414.051444,144.516 Z M440.995938,144.516 C435.061938,144.516 430.460938,140.431 430.460938,133.336 C430.460938,126.241 435.663938,122.156 441.554938,122.156 C444.177938,122.156 446.198938,123.102 447.789938,124.435 L444.822938,128.52 C443.790938,127.66 442.930938,127.273 441.941938,127.273 C438.888938,127.273 436.953938,129.638 436.953938,133.336 C436.953938,137.034 438.974938,139.399 441.726938,139.399 C443.102938,139.399 444.435938,138.711 445.553938,137.851 L448.047938,141.979 C445.940938,143.828 443.317938,144.516 440.995938,144.516 Z M456.373433,144.516 C452.460433,144.516 450.009433,141.678 450.009433,138.066 C450.009433,133.594 453.578433,131.143 462.006433,130.283 C461.877433,128.391 460.974433,127.187 458.652433,127.187 C456.846433,127.187 455.083433,127.918 453.019433,129.122 L450.740433,124.951 C453.449433,123.317 456.502433,122.156 459.856433,122.156 C465.317433,122.156 468.327433,125.252 468.327433,131.788 L468.327433,144 L463.167433,144 L462.737433,141.807 L462.565433,141.807 C460.759433,143.398 458.781433,144.516 456.373433,144.516 Z M458.523433,139.614 C459.942433,139.614 460.888433,138.926 462.006433,137.808 L462.006433,134.067 C457.534433,134.669 456.072433,135.959 456.072433,137.593 C456.072433,138.969 457.018433,139.614 458.523433,139.614 Z M480.737928,144.516 C475.448928,144.516 473.384928,141.205 473.384928,136.26 L473.384928,127.617 L470.460928,127.617 L470.460928,122.93 L473.728928,122.672 L474.459928,116.996 L479.705928,116.996 L479.705928,122.672 L484.822928,122.672 L484.822928,127.617 L479.705928,127.617 L479.705928,136.174 C479.705928,138.582 480.780928,139.571 482.457928,139.571 C483.145928,139.571 483.919928,139.356 484.478928,139.141 L485.467928,143.742 C484.349928,144.086 482.801928,144.516 480.737928,144.516 Z M488.633423,144 L488.633423,122.672 L494.954423,122.672 L494.954423,144 L488.633423,144 Z M491.772423,119.533 C489.665423,119.533 488.117423,118.157 488.117423,116.222 C488.117423,114.287 489.665423,112.954 491.772423,112.954 C493.922423,112.954 495.427423,114.287 495.427423,116.222 C495.427423,118.157 493.922423,119.533 491.772423,119.533 Z M509.299918,144.516 C503.881918,144.516 498.893918,140.431 498.893918,133.336 C498.893918,126.241 503.881918,122.156 509.299918,122.156 C514.674918,122.156 519.662918,126.241 519.662918,133.336 C519.662918,140.431 514.674918,144.516 509.299918,144.516 Z M509.299918,139.399 C511.879918,139.399 513.212918,137.034 513.212918,133.336 C513.212918,129.638 511.879918,127.273 509.299918,127.273 C506.676918,127.273 505.386918,129.638 505.386918,133.336 C505.386918,137.034 506.676918,139.399 509.299918,139.399 Z M523.645413,144 L523.645413,122.672 L528.805413,122.672 L529.235413,125.381 L529.407413,125.381 C531.213413,123.661 533.363413,122.156 536.244413,122.156 C540.888413,122.156 542.866413,125.424 542.866413,130.756 L542.866413,144 L536.545413,144 L536.545413,131.573 C536.545413,128.477 535.728413,127.531 533.922413,127.531 C532.331413,127.531 531.342413,128.262 529.966413,129.595 L529.966413,144 L523.645413,144 Z" id="Redefine-education" fill="#6DB593"></path>
        </g>
    </g>
</svg>