<?xml version="1.0" encoding="UTF-8"?>
<svg width="849px" height="714px" viewBox="0 0 849 714" version="1.1" xmlns="http://www.w3.org/2000/svg" xmlns:xlink="http://www.w3.org/1999/xlink">
    <!-- Generator: Sketch 49.3 (51167) - http://www.bohemiancoding.com/sketch -->
    <title>Artboard Copy</title>
    <desc>Created with Sketch.</desc>
    <defs></defs>
    <g id="Artboard-Copy" stroke="none" stroke-width="1" fill="none" fill-rule="evenodd">
        <g id="undraw_elements_cipa" transform="translate(10.000000, 93.000000)">
            <path d="M333.662812,354.381092 C309.699611,443.235514 258.969846,521 166.831406,521 C74.692966,521 0,446.402173 0,354.381092 C0,262.360011 97.114308,247.926793 166.831406,187.762184 C308.406041,65.5858109 408.080028,78.4456538 333.662812,354.381092 Z" id="Shape" fill="#F2F2F2" fill-rule="nonzero"></path>
            <circle id="Oval" fill="#FF6584" fill-rule="nonzero" cx="382" cy="81" r="53"></circle>
            <rect id="Rectangle-path" fill="#FF6584" fill-rule="nonzero" x="451" y="7" width="28" height="28"></rect>
            <ellipse id="Oval" fill="#3F3D56" fill-rule="nonzero" cx="169" cy="521" rx="133" ry="18"></ellipse>
            <rect id="Rectangle-path" fill="#4285F4" fill-rule="nonzero" x="207" y="100" width="180" height="92"></rect>
            <circle id="Oval" fill="#2F2E41" fill-rule="nonzero" cx="161" cy="433" r="62"></circle>
            <rect id="Rectangle-path" fill="#2F2E41" fill-rule="nonzero" x="134" y="481" width="18" height="33"></rect>
            <rect id="Rectangle-path" fill="#2F2E41" fill-rule="nonzero" x="171" y="481" width="18" height="33"></rect>
            <ellipse id="Oval" fill="#2F2E41" fill-rule="nonzero" cx="149.5" cy="516" rx="15.5" ry="6"></ellipse>
            <ellipse id="Oval" fill="#2F2E41" fill-rule="nonzero" cx="186.5" cy="515" rx="15.5" ry="6"></ellipse>
            <circle id="Oval" fill="#FFFFFF" fill-rule="nonzero" cx="163.5" cy="417.5" r="21.5"></circle>
            <circle id="Oval" fill="#3F3D56" fill-rule="nonzero" cx="163" cy="417" r="7"></circle>
            <path d="M100.912263,374.627672 C95.929735,352.292917 111.856869,329.724593 136.486519,324.219903 C161.116169,318.715214 185.121566,332.358667 190.104102,354.69343 C195.086638,377.028193 178.763668,385.265631 154.134026,390.77032 C129.504384,396.27501 105.894791,396.962426 100.912263,374.627672 Z" id="Shape" fill="#4285F4" fill-rule="nonzero"></path>
            <circle id="Oval" fill="#2F2E41" fill-rule="nonzero" cx="141" cy="255" r="62"></circle>
            <rect id="Rectangle-path" fill="#2F2E41" fill-rule="nonzero" x="112" y="303" width="18" height="33"></rect>
            <rect id="Rectangle-path" fill="#2F2E41" fill-rule="nonzero" x="150" y="303" width="18" height="33"></rect>
            <ellipse id="Oval" fill="#2F2E41" fill-rule="nonzero" cx="127.5" cy="338" rx="15.5" ry="6"></ellipse>
            <ellipse id="Oval" fill="#2F2E41" fill-rule="nonzero" cx="165.5" cy="337" rx="15.5" ry="6"></ellipse>
            <circle id="Oval" fill="#FFFFFF" fill-rule="nonzero" cx="142.5" cy="239.5" r="21.5"></circle>
            <circle id="Oval" fill="#3F3D56" fill-rule="nonzero" cx="142" cy="239" r="7"></circle>
            <path d="M79.9122632,197.627672 C74.929735,175.292917 90.8568691,152.724593 115.486519,147.219903 C140.116169,141.715214 164.121566,155.358667 169.104102,177.69343 C174.086638,200.028193 157.763668,208.265631 133.134026,213.77032 C108.504384,219.27501 84.8947914,219.962426 79.9122632,197.627672 Z" id="Shape" fill="#4285F4" fill-rule="nonzero"></path>
            <ellipse id="Oval" fill="#2F2E41" fill-rule="nonzero" transform="translate(197.000000, 208.500000) rotate(-69.082170) translate(-197.000000, -208.500000) " cx="197" cy="208.5" rx="31" ry="9.5"></ellipse>
            <ellipse id="Oval" fill="#2F2E41" fill-rule="nonzero" transform="translate(70.500000, 226.000000) rotate(-64.625740) translate(-70.500000, -226.000000) " cx="70.5" cy="226" rx="9.5" ry="31"></ellipse>
            <path d="M110,277.648819 C110,283.818007 125.494076,296 142.686922,296 C159.879768,296 176,278.631804 176,272.462615 C176,266.293427 159.879768,273.659431 142.686922,273.659431 C125.494076,273.659431 110,271.479638 110,277.648819 Z" id="Shape" fill="#FFFFFF" fill-rule="nonzero"></path>
            <rect id="Rectangle-path" stroke="#3F3D56" stroke-width="2" x="223" y="87" width="180" height="92"></rect>
            <rect id="Rectangle-path" stroke="#3F3D56" stroke-width="2" x="460" y="0" width="28" height="28"></rect>
            <path d="M826,421.938412 C826,485.727302 787.720344,508 740.5,508 C693.279656,508 655,485.727302 655,421.938412 C655,358.149522 740.5,277 740.5,277 C740.5,277 826,358.149538 826,421.938412 Z" id="Shape" fill="#F2F2F2" fill-rule="nonzero"></path>
            <polygon id="Shape" fill="#3F3D56" fill-rule="nonzero" points="737.037007 498.871854 737.904514 445.333886 774 379.100751 738.040135 436.936111 738.430631 412.863061 763.306975 364.943675 738.533516 406.492415 738.533516 406.493197 739.235004 363.1972 765.873644 325.047596 739.344904 356.388764 739.782945 277 737.029992 382.096495 737.256027 377.760797 710.172331 336.180004 736.821883 386.083523 734.298083 434.437573 734.223258 433.153906 703 389.396665 734.128167 437.688173 733.812497 443.735166 733.756378 443.825851 733.782099 444.322275 727.379847 567 735.934111 567 736.959843 503.63518 768.012405 455.461719"></polygon>
            <ellipse id="Oval" fill="#3F3D56" fill-rule="nonzero" cx="730.5" cy="567" rx="29.5" ry="9"></ellipse>
            <ellipse id="Oval" fill="#3F3D56" fill-rule="nonzero" cx="599" cy="596" rx="133" ry="18"></ellipse>
            <circle id="Oval" fill="#2F2E41" fill-rule="nonzero" cx="600" cy="504" r="62"></circle>
            <rect id="Rectangle-path" fill="#2F2E41" fill-rule="nonzero" transform="translate(618.000000, 568.500000) rotate(-180.000000) translate(-618.000000, -568.500000) " x="609" y="552" width="18" height="33"></rect>
            <rect id="Rectangle-path" fill="#2F2E41" fill-rule="nonzero" transform="translate(581.000000, 568.500000) rotate(-180.000000) translate(-581.000000, -568.500000) " x="572" y="552" width="18" height="33"></rect>
            <ellipse id="Oval" fill="#2F2E41" fill-rule="nonzero" transform="translate(577.500000, 589.000000) rotate(-30.000000) translate(-577.500000, -589.000000) " cx="577.5" cy="589" rx="15.5" ry="6"></ellipse>
            <ellipse id="Oval" fill="#2F2E41" fill-rule="nonzero" transform="translate(614.500000, 589.000000) rotate(-30.000000) translate(-614.500000, -589.000000) " cx="614.5" cy="589" rx="15.5" ry="6"></ellipse>
            <circle id="Oval" fill="#FFFFFF" fill-rule="nonzero" cx="599.5" cy="488.5" r="21.5"></circle>
            <circle id="Oval" fill="#3F3D56" fill-rule="nonzero" cx="591" cy="479" r="7"></circle>
            <path d="M660.087737,445.627672 C665.070265,423.292917 649.143131,400.724593 624.513481,395.219903 C599.883831,389.715214 575.878434,403.358667 570.895898,425.69343 C565.913362,448.028193 582.23634,456.265631 606.865982,461.77032 C631.495624,467.27501 655.105209,467.962426 660.087737,445.627672 Z" id="Shape" fill="#4285F4" fill-rule="nonzero"></path>
            <ellipse id="Oval" fill="#2F2E41" fill-rule="nonzero" transform="translate(545.500000, 482.000000) rotate(-66.828840) translate(-545.500000, -482.000000) " cx="545.5" cy="482" rx="9.5" ry="31"></ellipse>
            <ellipse id="Oval" fill="#2F2E41" fill-rule="nonzero" transform="translate(661.500000, 524.000000) rotate(-66.828840) translate(-661.500000, -524.000000) " cx="661.5" cy="524" rx="9.5" ry="31"></ellipse>
            <rect id="Rectangle-path" fill="#FF6584" fill-rule="nonzero" x="496" y="445" width="28" height="28"></rect>
            <rect id="Rectangle-path" stroke="#3F3D56" stroke-width="2" x="467" y="395" width="28" height="28"></rect>
            <path d="M612,530.2 C612,537.82153 605.731986,544 598,544 C590.268014,544 584,537.82153 584,530.2 C584,522.578467 590.26801,521 598,521 C605.73199,521 612,522.578467 612,530.2 Z" id="Shape" fill="#FFFFFF" fill-rule="nonzero"></path>
        </g>
        <g id="slack-new-logo" transform="translate(614.000000, 37.000000)" fill-rule="nonzero">
            <path d="M69.9191109,2.21016351e-15 C59.3774876,0.00777632154 50.8460185,8.54617737 50.8538098,19.0675404 C50.8460185,29.5889035 59.3852789,38.1273045 69.9269022,38.1350808 L89,38.1350808 L88.9999947,19.0753167 C89.007786,8.55395369 80.4685256,0.0155526431 69.9191109,0 C69.9269022,0 69.9269022,0 69.9191109,0 Z M69.9191109,50.8571429 L19.0731137,50.8571429 C8.53149033,50.8649192 -0.00777000328,59.4033202 2.12926463e-05,69.9246833 C-0.0155612992,80.4460463 8.52369904,88.9844474 19.0653224,89 L69.9191109,89 C80.4607343,88.9922237 88.9999947,80.4538226 88.9922034,69.9324596 C88.9999947,59.4033202 80.4607343,50.8649192 69.9191109,50.8571429 Z" id="Shape" fill="#36C5F0"></path>
            <path d="M189.999995,69.9246833 C190.007787,59.4033202 181.467779,50.8649192 170.925232,50.8571429 C160.382686,50.8649192 151.842678,59.4033202 151.85047,69.9246833 L151.850465,89 L170.925232,89 C181.467779,88.9922237 190.007787,80.4538226 189.999995,69.9246833 Z M139.141754,69.9246833 L139.141754,19.0675404 C139.149546,8.55395369 130.61733,0.0155526431 120.074784,0 C109.532237,0.00777632154 100.992229,8.54617737 101.000021,19.0675404 L101.000021,69.9246833 C100.984437,80.4460463 109.524445,88.9844474 120.066992,89 C130.609538,88.9922237 139.149546,80.4538226 139.141754,69.9246833 Z" id="Shape" fill="#2EB67D"></path>
            <path d="M120.073098,190 C130.614721,189.992224 139.153981,181.454569 139.14619,170.934125 C139.153981,160.413682 130.614721,151.876027 120.073098,151.868251 L101,151.868251 L101.000005,170.934125 C100.992214,181.446794 109.531474,189.984449 120.073098,190 Z M120.073098,139.139525 L170.926886,139.139525 C181.46851,139.131749 190.00777,130.594094 189.999979,120.07365 C190.015561,109.553206 181.476301,101.015551 170.934678,101 L120.080889,101 C109.539266,101.007776 101.000005,109.545431 101.007797,120.065875 C101.000005,130.594094 109.531474,139.131749 120.073098,139.139525 Z" id="Shape" fill="#ECB22E"></path>
            <path d="M5.32786106e-06,120.06754 C-0.0077866502,130.588903 8.5322213,139.127304 19.0747676,139.135081 C29.6173139,139.127304 38.1573219,130.588903 38.1495299,120.06754 L38.1495352,101 L19.0747676,101 C8.5322213,101.007776 -0.0077866502,109.546177 5.32786106e-06,120.06754 Z M50.8582461,120.06754 L50.8582461,170.924683 C50.8426622,181.446046 59.3826701,189.984447 69.9252164,190 C80.4677627,189.992224 89.0077707,181.453823 88.9999787,170.93246 L88.9999787,120.083093 C89.0155627,109.56173 80.4755547,101.023329 69.9330084,101.007776 C59.3826701,101.007776 50.8504541,109.546177 50.8582461,120.06754 C50.8582461,120.06754 50.8582461,120.075317 50.8582461,120.06754 Z" id="Shape" fill="#E01E5A"></path>
        </g>
    </g>
</svg>