<?xml version="1.0" encoding="UTF-8"?>
<svg width="849px" height="714px" viewBox="0 0 849 714" version="1.1" xmlns="http://www.w3.org/2000/svg" xmlns:xlink="http://www.w3.org/1999/xlink">
    <!-- Generator: Sketch 49.3 (51167) - http://www.bohemiancoding.com/sketch -->
    <title>Artboard Copy 3</title>
    <desc>Created with Sketch.</desc>
    <defs></defs>
    <g id="Artboard-Copy-3" stroke="none" stroke-width="1" fill="none" fill-rule="evenodd">
        <g id="undraw_journey_lwlj" transform="translate(3.000000, 221.000000)" fill-rule="nonzero">
            <circle id="Oval" fill="#FF6584" cx="185" cy="160" r="64"></circle>
            <path d="M821,455.537132 C817.227586,458.925639 813.259499,462.090623 809.116137,465.015813 C799.282488,471.918441 788.6558,477.620458 777.463189,482 C730.94969,480.883109 662.570927,475.186966 576.258125,472.149022 C569.820101,469.95251 563.235361,467.574774 556.503908,465.015813 C547.596606,461.62791 538.433175,457.904941 529.013616,453.846904 C489.893103,436.974406 449.728183,426.006537 409.943726,419.454111 C401.394506,418.046828 392.867666,416.840586 384.363207,415.835384 C204.710182,394.391087 39.0373467,457.398617 19.8500929,465.015843 L18,465.015843 L29.8018023,442.201485 L230.611483,54 L277.57251,174.341269 L292.559755,212.754869 L333.866063,156.180623 L355.194352,126.970204 L452.324229,238.115738 L479.77722,177.60259 L669.844426,332.418558 L680.44516,341.048401 L691.172715,349.789934 L694.589418,352.574715 L796.202712,435.343775 L821,455.537132 Z" id="Shape" fill="#F2F2F2"></path>
            <polygon id="Shape" fill="#000000" opacity="0.1" points="213 132.578313 232.290323 90 259 152 236 107.180723"></polygon>
            <path d="M409,420 C400.478742,418.59067 391.97979,417.382673 383.503146,416.376009 L292,213 L409,420 Z" id="Shape" fill="#000000" opacity="0.1"></path>
            <polygon id="Shape" fill="#000000" opacity="0.1" points="333 156.597653 354.27198 140 451 252 352.783856 156.426667"></polygon>
            <polygon id="Shape" fill="#000000" opacity="0.1" points="452 239 646 424.741509 619.464571 431"></polygon>
            <path d="M847,465.134684 C847,479.607066 822.42507,482.902017 776.943556,481.8037 C730.45541,480.682968 662.113917,474.967237 575.84816,471.918847 C543.220766,470.768229 508.021056,469.991188 470.472711,469.991188 C236.578433,469.991188 0,500.004382 0,465.134684 C0,456.915985 10.5278521,449.070864 29.6897359,441.868295 C86.5043486,420.514621 219.205986,404.876678 378.182518,402.358768 C385.414824,402.239223 392.699337,402.152055 400.036057,402.097263 C407.805194,402.03002 415.626524,401.997643 423.500045,402.000133 C486.704437,402.000133 546.680388,404.06228 600.549886,407.760694 C600.721374,407.775637 600.885406,407.79058 601.056893,407.798089 C605.381365,408.096951 609.663586,408.405775 613.903557,408.724561 C618.533724,409.075723 623.114185,409.436848 627.644939,409.807935 C628.576937,409.88265 629.508936,409.957328 630.433478,410.039553 C631.104517,410.091816 631.775555,410.151626 632.439138,410.211398 C633.66192,410.308528 634.884701,410.41313 636.092571,410.525203 C636.134962,410.523735 636.177396,410.526236 636.219323,410.532675 C638.441237,410.726935 640.648208,410.921195 642.840238,411.115455 C643.071374,411.13787 643.30251,411.160284 643.533645,411.17519 C707.245045,416.965637 759.899173,425.191807 795.672978,434.987002 C828.404816,443.945399 847,454.211294 847,465.134684 Z" id="Shape" fill="#3F3D56"></path>
            <path d="M53,341 C53,388.53516 82.9667997,427 120,427" id="Shape" fill="#3F3D56"></path>
            <path d="M120,427 C120,378.912109 153.544923,340 195,340" id="Shape" fill="#4285F4"></path>
            <path d="M77,346 C77,391.324212 96.2324223,428 120,428" id="Shape" fill="#4285F4"></path>
            <path d="M120,427 C120,365.646483 158.464815,316 206,316" id="Shape" fill="#3F3D56"></path>
            <path d="M105,429.147591 C105,429.147591 114.406087,428.854188 117.240843,426.809784 C120.075599,424.76538 131.709772,422.324244 132.413008,425.603022 C133.116243,428.881801 146.548612,441.910163 135.929186,441.996922 C125.30976,442.083681 111.254368,440.321631 108.425064,438.576151 C105.595759,436.830672 105,429.147591 105,429.147591 Z" id="Shape" fill="#A8A8A8"></path>
            <path d="M136.12087,438.932477 C125.500701,439.013425 111.444332,437.369816 108.61483,435.741672 C106.459979,434.501755 105.601341,430.052625 105.31403,428 C105.115063,428.008081 105,428.011563 105,428.011563 C105,428.011563 105.595801,435.178164 108.425303,436.806316 C111.254806,438.434467 125.311174,440.078069 135.931343,439.997128 C138.996971,439.973772 140.055883,438.943412 139.997746,437.417457 C139.571858,438.339423 138.402655,438.915129 136.12087,438.932477 Z" id="Shape" fill="#000000" opacity="0.2"></path>
            <path d="M569,334 C569,381.53516 598.9668,420 636,420 L569,334 Z" id="Shape" fill="#3F3D56"></path>
            <path d="M636,420 C636,371.912109 669.544923,333 711,333 L636,420 Z" id="Shape" fill="#4285F4"></path>
            <path d="M593,339 C593,384.324212 612.232422,421 636,421 L593,339 Z" id="Shape" fill="#4285F4"></path>
            <path d="M636,421 C636,359.646483 674.464815,310 722,310 L636,421 Z" id="Shape" fill="#3F3D56"></path>
            <path d="M622,422.147591 C622,422.147591 631.406087,421.854188 634.240843,419.809784 C637.075599,417.76538 648.709772,415.324244 649.413008,418.603022 C650.116243,421.881801 663.548612,434.910163 652.929186,434.996922 C642.30976,435.083681 628.254368,433.321631 625.425064,431.576151 C622.595759,429.830672 622,422.147591 622,422.147591 Z" id="Shape" fill="#A8A8A8"></path>
            <path d="M653.12087,432.932477 C642.500701,433.013425 628.444332,431.369816 625.61483,429.741672 C623.459979,428.501755 622.601341,424.052625 622.31403,422 C622.115063,422.008081 622,422.011563 622,422.011563 C622,422.011563 622.595801,429.178164 625.425303,430.806316 C628.254806,432.434467 642.311174,434.078069 652.931343,433.997128 C655.996971,433.973772 657.055883,432.943412 656.997746,431.417457 C656.571858,432.339423 655.402655,432.915129 653.12087,432.932477 Z" id="Shape" fill="#000000" opacity="0.2"></path>
            <rect id="Rectangle-path" fill="#3F3D56" x="358" y="329" width="13" height="24"></rect>
            <circle id="Oval" fill="#F2F2F2" cx="365.5" cy="335.5" r="2.5"></circle>
            <path d="M367.146816,307.805856 C367.146816,307.805856 363.006814,331.175673 370.458811,331.9815 C377.910808,332.787327 371.286811,307 371.286811,307 L367.146816,307.805856 Z" id="Shape" fill="#FFB9B9"></path>
            <path d="M371.653865,227 C371.653865,227 362.963106,307.729256 365.446176,308.946277 C367.929245,310.163299 374.550777,311.785993 375.792319,310.568971 C377.033861,309.351949 382,259.453974 382,259.453974 L378.275388,233.490818 L371.653865,227 Z" id="Shape" fill="#575A89"></path>
            <path d="M371.653865,227 C371.653865,227 362.963106,307.729256 365.446176,308.946277 C367.929245,310.163299 374.550777,311.785993 375.792319,310.568971 C377.033861,309.351949 382,259.453974 382,259.453974 L378.275388,233.490818 L371.653865,227 Z" id="Shape" fill="#000000" opacity="0.1"></path>
            <rect id="Rectangle-path" fill="#2F2E41" x="388" y="191" width="26" height="28"></rect>
            <path d="M393.123662,203 C393.123662,203 392.312382,220.861384 386.633433,222.079204 C380.954483,223.297024 391.906761,244 391.906761,244 L408.94361,242.376235 L413,218.019799 C413,218.019799 403.670296,216.396034 406.915414,203.811875 L393.123662,203 Z" id="Shape" fill="#FFB9B9"></path>
            <path d="M393.123662,203 C393.123662,203 392.312382,220.861384 386.633433,222.079204 C380.954483,223.297024 391.906761,244 391.906761,244 L408.94361,242.376235 L413,218.019799 C413,218.019799 403.670296,216.396034 406.915414,203.811875 L393.123662,203 Z" id="Shape" fill="#000000" opacity="0.1"></path>
            <polygon id="Shape" fill="#FFB9B9" points="395 407.714733 396.285267 415 404 413.28605 402.285267 406"></polygon>
            <polygon id="Shape" fill="#FFB9B9" points="417.699918 398 415 405.071582 423.549877 409 424 403.107373"></polygon>
            <path d="M385.919375,287.816975 C385.919375,287.816975 376.264173,316.411046 378.275703,329.89111 C380.287232,343.371175 388.333201,407.503591 388.333201,407.503591 C388.333201,407.503591 397.586106,413.63089 403.218308,406.686616 L399.195287,351.949398 C399.195287,351.949398 399.999888,318.86197 403.218294,322.129861 C406.436699,325.397753 418.907995,363.795513 418.907995,363.795513 L416.494191,398.516883 C416.494191,398.516883 417.701096,409.137577 424.942494,404.644183 L435,366.24643 C435,366.24643 431.781595,314.777104 430.172399,312.734663 C428.563204,310.692223 418.103393,287 418.103393,287 L385.919375,287.816975 Z" id="Shape" fill="#2F2E41"></path>
            <circle id="Oval" fill="#FFB9B9" cx="402" cy="199" r="12"></circle>
            <path d="M389.600018,227.858759 C389.600018,227.858759 394.000012,234.393059 399.60001,229.900729 C405.200008,225.408398 408.400004,225 408.400004,225 L415.200007,229.08394 L413.600005,245.011307 L416,289.117867 C416,289.117867 386.800019,291.568236 385.200018,288.301078 C383.600016,285.03392 387.200016,271.14853 387.200016,271.14853 L382,241.335758 L382,227.858759 L389.600018,227.858759 Z" id="Shape" fill="#4285F4"></path>
            <path d="M400.203403,240.824412 C400.203403,240.824412 392.652556,218.431256 390.135602,218.024104 C387.618648,217.616951 380.487297,222.502738 380.487297,222.502738 C380.487297,222.502738 370,225.759921 370,227.795685 C370,229.831448 371.677969,229.831425 371.677969,229.831425 L377.550855,240.824434 C377.550855,240.824434 380.067801,250.595993 379.228824,257.11036 C378.72284,261.025828 378.582438,264.977664 378.809328,268.91766 C378.809328,268.91766 369.580511,322.661232 374.194923,324.289828 C378.809335,325.918423 378.809328,327.547011 378.809328,327.547011 C378.809328,327.547011 385.521198,331.211348 386.77964,329.58276 C388.038083,327.954171 400.203365,257.924658 400.203365,257.924658 C400.203365,257.924658 406.495769,246.117336 400.203403,240.824412 Z" id="Shape" fill="#575A89"></path>
            <path d="M401.528681,240.795992 C401.528681,240.795992 405.223187,232.238072 403.170685,226.532792 C403.170685,226.532792 405.223187,226.125276 406.044189,224.90271 C406.865191,223.680145 406.044189,217.567356 408.09669,217.159861 C410.149192,216.752367 425.337706,217.159861 426.158708,217.974902 C426.97971,218.789943 429.442717,224.495223 429.442717,224.495223 L428.21121,224.495223 L419.180201,239.16594 C419.180201,239.16594 423.695709,266.877292 422.874707,271.360014 C422.053705,275.842736 434.779219,294.588651 436.421224,295.811209 C438.063228,297.033766 445.452232,316.594722 442.168224,318.632321 C438.884215,320.66992 410.149192,333.710562 408.917693,327.190241 C407.686193,320.66992 399.065682,281.548009 399.065682,281.548009 C399.065682,281.548009 398.655177,259.949454 399.886676,254.651698 C401.118176,249.353942 401.528681,240.795992 401.528681,240.795992 Z" id="Shape" fill="#575A89"></path>
            <path d="M419.971076,305.822374 C419.971076,305.822374 411.036155,334.194478 419.971076,332.96091 C428.905998,331.727342 426.778629,305 426.778629,305 L419.971076,305.822374 Z" id="Shape" fill="#FFB9B9"></path>
            <path d="M401.78467,413.448051 C401.78467,413.448051 408.451876,415.409444 407.975651,419.822581 C407.672704,422.432449 406.03808,424.676558 403.689571,425.706766 C402.263617,426.661152 401.517125,428.390561 401.784655,430.119918 C402.260881,433.062014 397.974816,437.475144 390.831377,435.513751 C383.687937,433.552359 385.116628,431.590966 385.116628,431.590966 C385.505345,429.415485 386.700883,427.481084 388.450235,426.197133 C391.307609,424.23574 394.641216,417.370829 394.641216,416.880514 C394.641216,416.3902 395.593674,412.957729 395.593674,412.957729 C395.593674,412.957729 399.403521,410.505962 401.78467,413.448051 Z" id="Shape" fill="#2F2E41"></path>
            <path d="M416.048707,404 C416.048707,404 408.581166,407.323365 410.240621,411.477564 C411.900077,415.631763 417.293295,421.447644 418.122992,427.678942 C418.95269,433.91024 426.005363,439.310705 430.983752,435.98734 C435.96214,432.663975 430.154024,426.01726 430.154024,426.01726 C430.154024,426.01726 423.931078,414.385505 423.516218,411.892981 C423.101358,409.400457 424.345938,406.907941 421.856763,406.077099 C419.367587,405.246258 416.048707,404 416.048707,404 Z" id="Shape" fill="#2F2E41"></path>
            <path d="M427.45247,227.75883 C427.45247,227.75883 426.448187,223.065171 427.653325,225.922177 C428.858463,228.779184 437.696161,263.471501 429.661891,284.286882 C429.661891,284.286882 428.858471,310 428.055043,310 C427.251615,310 417.610496,309.591858 418.012207,306.734844 C418.413917,303.87783 419.217352,257.757473 419.217352,254.900459 C419.217352,252.043445 420.623345,233.472858 420.623345,233.472858 L427.45247,227.75883 Z" id="Shape" fill="#000000" opacity="0.1"></path>
            <path d="M425.541613,221 C426.813846,222.616608 427.880822,224.391795 428.717033,226.283123 C429.907812,229.127872 438.640204,263.671247 430.701667,284.397268 C430.701667,284.397268 429.907812,310 429.113957,310 C428.320102,310 418.793819,309.59361 419.190786,306.748862 C419.587754,303.904113 420.381565,257.98175 420.381565,255.137001 C420.381565,252.292252 418,233.191804 418,233.191804 L425.541613,221 Z" id="Shape" fill="#575A89"></path>
            <path d="M395.322355,177.875741 C391.025273,179.21589 387.816786,182.717747 384.826427,186.074986 C383.663451,187.261986 382.676998,188.609097 381.897145,190.075245 C381.137316,191.944216 380.736043,193.93888 380.71418,195.955568 C380.514701,199.081134 380.450962,202.211403 380.522962,205.346375 C380.592096,208.34951 380.776331,211.427974 379.850907,214.286557 C378.956238,217.050191 377.093698,219.386361 375.814365,221.995117 C373.773472,226.156795 373.302488,231.206833 375.186416,235.441506 C376.223361,237.77233 377.901486,239.756274 379.155439,241.978451 C381.372497,245.936077 382.19378,250.521433 381.48773,255 L387.385153,247.379446 C391.162398,242.498545 395.059088,237.355543 396.121771,231.281349 C397.663145,222.470917 392.951565,213.841553 392.02182,204.946195 C391.762567,202.465765 391.84971,199.787079 393.257159,197.725911 C395.334735,194.683374 399.853527,193.608593 401.102778,190.144632 C401.283485,191.595328 409.994723,196.215082 411.043921,195.316447 C412.356291,198.848217 411.73293,202.806623 409.398202,205.766928 C408.555062,206.811255 407.51858,207.68995 406.696192,208.750622 C404.566213,211.497733 404.081631,215.201761 404.382299,218.661651 C404.682967,222.121541 405.681554,225.481583 406.20942,228.9143 C406.655678,232.332098 406.868781,235.776176 406.847258,239.222772 C406.88643,241.608665 406.82081,244.27111 405.143425,245.972417 C407.8942,245.010619 410.407454,243.474164 412.515181,241.465761 C413.659026,240.223906 414.887498,239.062344 416.191827,237.989369 C418.829959,236.090962 422.404264,235.527857 424.556408,233.094681 C426.477923,230.922241 426.78407,227.735206 426.332792,224.873274 C425.881514,222.011343 424.781116,219.288356 424.227326,216.444388 C423.527466,212.827064 423.72306,209.094029 424.797137,205.569187 C425.580577,203.009102 426.83083,200.541378 426.983691,197.869008 C427.295475,192.418402 423.082336,187.859176 419.031515,184.187824 C412.962886,178.68775 403.564448,175.305262 395.322355,177.875741 Z" id="Shape" fill="#2F2E41"></path>
            <path d="M742.998574,77.9888166 C739.371662,79.3282534 733.005269,80.4238608 725.634273,81.3083761 C705.592784,83.7138651 678.126481,84.5677719 678.126481,84.5677719 C678.126481,84.5677719 536.973867,96.2786008 431.175638,52.7263947 C431.175638,52.7263947 415.786775,44.6549679 430.081329,33.7969851 C432.27739,32.1720147 434.613408,30.745355 437.061848,29.5338221 C437.061848,29.5338221 437.120945,29.4736509 437.238078,29.3617635 C438.86191,27.85976 440.617155,26.5064615 442.482719,25.3181328 C447.96268,21.7747836 457.218364,17.5707312 468.481156,19.4748632 L746.336357,64.4287612 C746.336357,64.4287612 756.485858,73.00578 742.998574,77.9888166 Z" id="Shape" fill="#F2F2F2"></path>
            <path d="M687,57.1972378 L744.608779,16 L770,20.4257794 L745.13728,63.9941448 C745.13728,63.9941448 687.661631,64.4550953 687,57.1972378 Z" id="Shape" fill="#F2F2F2"></path>
            <polygon id="Shape" fill="#F2F2F2" points="540 32.6746866 655.397607 0 674 3.92393575 621.872693 27.598198 605.578028 46"></polygon>
            <path d="M725,81.3266216 C705.000654,83.7227557 677.592107,84.5733418 677.592107,84.5733418 C677.592107,84.5733418 536.736307,96.2386279 431.160549,52.8557941 C431.160549,52.8557941 415.804046,44.8157566 430.068541,34 L430.116977,34.1976827 C430.116977,34.1976827 452.896363,49.5701772 561.740774,62.405645 L725,81.3266216 Z" id="Shape" fill="#F2F2F2"></path>
            <path d="M706.249556,80.4027985 L758.000845,102 L771,100.524448 L740.045742,76.7460254 C740.045742,76.7460254 702.606941,68.5841959 706.249556,80.4027985 Z" id="Shape" fill="#F2F2F2"></path>
            <path d="M448.312055,35.9996621 C445.911597,36.0431931 440.41635,31.8713362 437,29.0667515 C438.575862,27.5561598 440.279255,26.1951233 442.089708,25 C444.843491,27.1910189 449.745776,30.7386733 452.470869,30.6123544 C456.404387,30.429772 451.922982,35.9349102 448.312055,35.9996621 Z" id="Shape" fill="#F2F2F2"></path>
            <path d="M683,153.267677 L649.863434,155 L556.700975,92.1772229 L539.405732,80.5144714 L531,74.8464902 C546.762527,61.5239765 611.065105,79.8928399 611.065105,79.8928399 C612.296639,80.9321908 612.687338,82.6583985 612.631278,84.5645546 C612.525364,88.1371836 610.847867,92.3422022 610.200782,93.838555 C610.045288,94.1992328 609.949708,94.4021852 609.949708,94.4021852 L683,153.267677 Z" id="Shape" fill="#F2F2F2"></path>
            <path d="M742.998574,77.9888166 C739.371662,79.3282534 733.005269,80.4238608 725.634273,81.3083761 C705.592784,83.7138651 678.126481,84.5677719 678.126481,84.5677719 C678.126481,84.5677719 536.973867,96.2786008 431.175638,52.7263947 C431.175638,52.7263947 415.786775,44.6549679 430.081329,33.7969851 C432.27739,32.1720147 434.613408,30.745355 437.061848,29.5338221 C437.061848,29.5338221 437.120945,29.4736509 437.238078,29.3617635 C438.86191,27.85976 440.617155,26.5064615 442.482719,25.3181328 C447.96268,21.7747836 457.218364,17.5707312 468.481156,19.4748632 L746.336357,64.4287612 C746.336357,64.4287612 756.485858,73.00578 742.998574,77.9888166 Z" id="Shape" fill="#3F3D56"></path>
            <path d="M687,57.1972378 L744.608779,16 L770,20.4257794 L745.13728,63.9941448 C745.13728,63.9941448 687.661631,64.4550953 687,57.1972378 Z" id="Shape" fill="#3F3D56"></path>
            <polygon id="Shape" fill="#3F3D56" points="540 32.6746866 655.397607 0 674 3.92393575 621.872693 27.598198 605.578028 46"></polygon>
            <path d="M725,81.3266216 C705.000654,83.7227557 677.592107,84.5733418 677.592107,84.5733418 C677.592107,84.5733418 536.736307,96.2386279 431.160549,52.8557941 C431.160549,52.8557941 415.804046,44.8157566 430.068541,34 L430.116977,34.1976827 C430.116977,34.1976827 452.896363,49.5701772 561.740774,62.405645 L725,81.3266216 Z" id="Shape" fill="#4285F4"></path>
            <path d="M706.249556,80.4027985 L758.000845,102 L771,100.524448 L740.045742,76.7460254 C740.045742,76.7460254 702.606941,68.5841959 706.249556,80.4027985 Z" id="Shape" fill="#3F3D56"></path>
            <path d="M448.312055,35.9996621 C445.911597,36.0431931 440.41635,31.8713362 437,29.0667515 C438.575862,27.5561598 440.279255,26.1951233 442.089708,25 C444.843491,27.1910189 449.745776,30.7386733 452.470869,30.6123544 C456.404387,30.429772 451.922982,35.9349102 448.312055,35.9996621 Z" id="Shape" fill="#4285F4"></path>
            <path d="M683,153.267677 L649.863434,155 L556.700975,92.1772229 L539.405732,80.5144714 L531,74.8464902 C546.762527,61.5239765 611.065105,79.8928399 611.065105,79.8928399 C612.296639,80.9321908 612.687338,82.6583985 612.631278,84.5645546 C612.525364,88.1371836 610.847867,92.3422022 610.200782,93.838555 C610.045288,94.1992328 609.949708,94.4021852 609.949708,94.4021852 L683,153.267677 Z" id="Shape" fill="#3F3D56"></path>
        </g>
    </g>
</svg>