<?xml version="1.0" encoding="UTF-8"?>
<svg width="849px" height="714px" viewBox="0 0 849 714" version="1.1" xmlns="http://www.w3.org/2000/svg" xmlns:xlink="http://www.w3.org/1999/xlink">
    <!-- Generator: Sketch 49.3 (51167) - http://www.bohemiancoding.com/sketch -->
    <title>Artboard</title>
    <desc>Created with Sketch.</desc>
    <defs></defs>
    <g id="Artboard" stroke="none" stroke-width="1" fill="none" fill-rule="evenodd">
        <g id="undraw_social_thinking_7ule" transform="translate(1.000000, 75.000000)">
            <path d="M93.4835,604.87602 C93.4835,627.34458 80.12706,635.18977 63.64962,635.18977 C63.2679133,635.18977 62.88681,635.185527 62.50631,635.17704 C61.74286,635.16068 60.98669,635.12433 60.23962,635.07343 C45.36905,634.02099 33.81575,625.77228 33.81575,604.87602 C33.81575,583.25088 61.45021,555.9636 63.52601,553.94413 L63.52965,553.9405 C63.60965,553.86234 63.64965,553.82417 63.64965,553.82417 C63.64965,553.82417 93.4835,582.40746 93.4835,604.87602 Z" id="Shape" fill="#4285F4" fill-rule="nonzero"></path>
            <path d="M62.56264,631.75249 L73.47427,616.50566 L62.53537,633.4266 L62.50631,635.17704 C61.74286,635.16068 60.98669,635.12433 60.23962,635.07343 L61.41569,612.59397 L61.40659,612.41947 L61.42659,612.38675 L61.53747,610.26368 L50.57128,593.30092 L61.57198,608.67137 L61.59746,609.12216 L62.48629,592.1376 L53.0979,574.60953 L62.60081,589.15653 L63.52601,553.94409 L63.52965,553.82409 L63.52965,553.94042 L63.37515,581.70757 L72.72176,570.69957 L63.33698,584.09963 L63.08978,599.30648 L71.81655,584.71219 L63.05343,601.54408 L62.91529,609.99818 L75.58463,589.68541 L62.86803,612.94831 L62.56264,631.75249 Z" id="Shape" fill="#3F3D56" fill-rule="nonzero"></path>
            <path d="M733.09095,319.38823 C733.09095,495.56706 653.09913,634.5515 554.59095,638.38823 C426.12842,643.39165 258.2342,515.30247 376.09095,319.38823 C466.90876,168.421 456.00812,0.38823 554.59095,0.38823 C653.17378,0.38823 733.09095,143.20939 733.09095,319.38823 Z" id="Shape" fill="#F2F2F2" fill-rule="nonzero"></path>
            <rect id="Rectangle-path" fill="#4285F4" fill-rule="nonzero" x="374.94699" y="413.04867" width="254.51357" height="221.02495"></rect>
            <path d="M0,634.07361 L846.02036,634.07361" id="Shape" stroke="#3F3D56" stroke-width="2"></path>
            <path d="M537.44635,193.11852 C537.44635,193.11852 579.79273,194.26981 586.7865,196.81427 C593.78027,199.35873 596.90761,217.55387 596.90761,217.55387 L564.02842,227.88824 L539.43653,226.49524 L520.92865,227.80306 L531.26286,200.73774 L537.44635,193.11852 Z" id="Shape" fill="#2F2E41" fill-rule="nonzero"></path>
            <path d="M539.27293,179.22338 C539.27293,179.22338 542.05909,189.9841 535.8756,197.60338 C529.69211,205.22266 562.45768,232.37307 562.45768,232.37307 L579.74307,229.40207 C579.74307,229.40207 575.93337,196.33807 581.05073,187.96545 C586.16809,179.59283 539.27293,179.22338 539.27293,179.22338 Z" id="Shape" fill="#9F616A" fill-rule="nonzero"></path>
            <path d="M539.27293,179.22338 C539.27293,179.22338 542.05909,189.9841 535.8756,197.60338 C529.69211,205.22266 562.45768,232.37307 562.45768,232.37307 L579.74307,229.40207 C579.74307,229.40207 575.93337,196.33807 581.05073,187.96545 C586.16809,179.59283 539.27293,179.22338 539.27293,179.22338 Z" id="Shape" fill="#000000" fill-rule="nonzero" opacity="0.1"></path>
            <polygon id="Shape" fill="#9F616A" fill-rule="nonzero" points="654.23 493.843 616.092 544.42 642.119 559.616 677.941 501.007"></polygon>
            <path d="M627.47779,545.27268 C627.47779,545.27268 613.43336,528.95394 614.05879,532.59297 C614.68422,536.232 604.06579,567.09271 613.94517,570.07783 C623.82455,573.06295 708.54579,580.98045 709.71139,571.41377 C710.87699,561.84709 684.43718,555.15192 684.43718,555.15192 C684.43718,555.15192 668.7296,540.05567 665.24694,541.59092 C661.76428,543.12617 627.47779,545.27268 627.47779,545.27268 Z" id="Shape" fill="#2F2E41" fill-rule="nonzero"></path>
            <polygon id="Shape" fill="#9F616A" fill-rule="nonzero" points="645.673 542.145 676.136 594.044 699.136 580.725 668.417 538.236"></polygon>
            <path d="M693.76182,418.67403 L684.72118,431.46752 C684.72118,431.46752 641.62157,491.32685 646.1988,496.15993 C650.77603,500.99301 669.83835,519.25918 679.53295,515.71963 C689.22755,512.18008 723.67018,450.99877 723.67018,450.99877 L714.68618,415.07758 L693.76182,418.67403 Z" id="Shape" fill="#2F2E41" fill-rule="nonzero"></path>
            <path d="M508.10018,406.56339 C508.10018,406.56339 517.75218,424.57372 542.21618,430.67187 C566.68018,436.77002 592.23869,449.23648 593.14845,449.08011 C594.05821,448.92374 596.63111,447.54489 597.25658,451.18392 C597.88205,454.82295 604.59153,461.1628 604.59153,461.1628 C604.59153,461.1628 631.61442,552.99139 641.93453,553.09087 C652.25464,553.19035 673.4633,545.79851 673.90396,542.91287 C674.34462,540.02723 642.30382,446.2512 641.99109,444.43168 L638.23818,422.59751 C638.23818,422.59751 680.61301,429.36372 684.56477,430.55776 C688.51653,431.7518 723.67018,450.99877 723.67018,450.99877 C723.67018,450.99877 759.50603,425.17008 725.98708,399.08577 C692.46813,373.00146 634.85482,353.86822 634.85482,353.86822 L614.18625,348.05435 L596.17289,346.97918 L593.52062,336.80825 L550.85856,339.26968 L506.33734,358.16149 L508.10018,406.56339 Z" id="Shape" fill="#2F2E41" fill-rule="nonzero"></path>
            <circle id="Oval" fill="#9F616A" fill-rule="nonzero" cx="564.40495" cy="167.41068" r="33.23151"></circle>
            <path d="M534.34038,194.12068 L538.33721,193.43368 C538.33721,193.43368 545.55606,221.22855 567.88778,225.81993 C567.88778,225.81993 578.90693,212.61953 578.43654,210.39222 C577.96615,208.16491 587.16319,196.28122 592.05316,202.93377 C596.94313,209.58632 590.85944,326.77454 594.96757,328.87834 C599.0757,330.98214 607.88899,333.21387 600.79574,340.98947 C593.70249,348.76507 565.52846,359.22737 559.28809,355.61679 C553.04772,352.00621 540.2968,321.41564 534.78136,311.12402 C529.26592,300.8324 520.43836,265.82102 520.43836,265.82102 C520.43836,265.82102 509.16579,227.48329 516.10267,218.79793 C523.03955,210.11257 534.34038,194.12068 534.34038,194.12068 Z" id="Shape" fill="#D0CDE1" fill-rule="nonzero"></path>
            <path d="M566.14476,338.39135 C565.401899,346.554499 564.130374,354.660873 562.33819,362.65943 C560.70838,369.16743 558.81075,373.09669 556.64519,372.92929 C551.11955,372.51629 548.6079,380.62053 547.31297,389.96385 C545.92878,399.87649 545.92878,411.18442 545.16972,415.18075 C544.1651,420.46084 537.73527,424.49062 524.88679,423.30736 C517.234863,422.436978 509.725022,420.595146 502.53869,417.82636 C485.19161,411.51936 485.70506,360.37107 488.60744,322.41729 C490.3823,299.15382 493.05025,280.83557 493.05025,280.83557 C493.05025,280.83557 487.7814,265.11823 486.0958,254.34602 C485.760191,252.380567 485.592137,250.390159 485.59345,248.39626 C485.85018,238.98596 503.02986,213.5569 513.41132,197.71677 C523.80396,181.87665 537.98082,193.49724 537.98082,193.49724 L533.04682,208.38848 C533.04682,208.38848 540.69336,220.18765 540.74923,231.41748 C540.8051,242.64731 559.05631,250.75159 565.60891,256.1879 C569.728,259.60375 569.62758,305.20414 566.14476,338.39135 Z" id="Shape" fill="#2F2E41" fill-rule="nonzero"></path>
            <path d="M580.57456,198.8186 C580.57456,198.8186 581.77208,200.23414 587.25556,199.54354 C593.83176,198.71533 602.87387,200.99064 604.97456,207.26933 C608.82685,218.78344 619.68721,265.62171 619.68721,265.62171 C619.68721,265.62171 624.20772,319.16947 626.24049,330.99631 C628.27326,342.82315 627.26403,353.29959 629.26835,359.51152 C631.27267,365.72345 609.48109,347.92638 601.44964,350.24344 C593.41819,352.5605 588.25808,322.53852 589.26731,312.06208 C590.27654,301.58564 591.12941,290.19946 588.34325,279.43874 C585.55709,268.67802 590.49671,240.19833 590.3119,233.67366 C590.12709,227.14899 572.6025,210.70463 580.57456,198.8186 Z" id="Shape" fill="#2F2E41" fill-rule="nonzero"></path>
            <path d="M604.08818,365.24439 C604.08818,365.24439 639.27387,384.44013 642.64128,411.76192 C646.00869,439.08371 595.57918,385.30729 595.57918,385.30729 L604.08818,365.24439 Z" id="Shape" fill="#9F616A" fill-rule="nonzero"></path>
            <path d="M624.17372,345.86936 C624.17372,345.86936 634.95537,400.21424 651.75089,397.32746 C668.54641,394.44068 642.36889,342.74202 642.36889,342.74202 L624.17372,345.86936 Z" id="Shape" fill="#9F616A" fill-rule="nonzero"></path>
            <path d="M681.69377,582.78587 C681.69377,582.78587 673.09377,592.69372 670.96149,591.18694 C668.82921,589.68016 663.92514,610.19237 668.346,614.11569 C672.76686,618.03901 689.79641,624.47834 689.98122,631.00301 C690.16603,637.52768 735.83871,636.23401 737.47341,629.39658 C739.10811,622.55915 731.74472,606.96539 726.57047,604.10819 C721.39622,601.25099 702.26427,574.95356 702.26427,574.95356 C702.26427,574.95356 687.28023,577.14246 681.69377,582.78587 Z" id="Shape" fill="#2F2E41" fill-rule="nonzero"></path>
            <path d="M598.48358,398.48113 C590.32352,392.72105 567.54012,391.29224 547.31293,389.96385 C538.4385,389.39453 530.05517,388.83639 523.61417,387.9322 C517.40761,387.07264 511.82617,381.40188 506.86985,372.95157 C499.35726,360.14778 493.28465,340.94762 488.6074,322.41728 C490.38226,299.15381 493.05021,280.83556 493.05021,280.83556 C493.05021,280.83556 487.78136,265.11822 486.09576,254.34601 C487.283998,252.692345 488.81455,251.314078 490.58325,250.30501 C512.03825,241.09563 532.52212,331.72701 535.12309,345.94859 C535.16778,346.18297 535.20124,346.40624 535.23476,346.59599 C536.4961,353.91883 550.126,360.18126 562.33819,362.65938 C569.86195,364.18869 576.8611,364.28919 580.08719,362.30216 C588.55977,357.10029 614.61395,377.91901 616.58974,378.51068 C618.56559,379.1135 610.2046,406.77514 598.48358,398.48113 Z" id="Shape" fill="#000000" fill-rule="nonzero" opacity="0.1"></path>
            <path d="M490.58686,244.72607 C490.58686,244.72607 474.99306,252.08947 481.84477,286.50387 C488.69648,320.91827 502.49937,379.42704 523.6086,382.35526 C544.71783,385.28348 586.75148,384.61526 598.47884,392.90256 C610.2062,401.18986 618.56453,373.52756 616.58865,372.93048 C614.61277,372.3334 588.55665,351.52283 580.08458,356.72548 C571.61251,361.92813 537.2691,352.84491 535.23633,341.01806 C533.20356,329.19121 512.39259,235.35835 490.58686,244.72607 Z" id="Shape" fill="#2F2E41" fill-rule="nonzero"></path>
            <path d="M602.9561,228.22219 L620.0941,267.98919 C620.0941,267.98919 621.81943,267.12845 623.82376,273.34039 C625.82809,279.55233 626.76629,285.01086 630.27739,289.09055 C633.78849,293.17024 649.41091,351.36625 649.88001,354.09555 C650.34911,356.82485 628.30298,366.23387 623.37687,358.65087 C618.45076,351.06787 602.9561,228.22219 602.9561,228.22219 Z" id="Shape" fill="#2F2E41" fill-rule="nonzero"></path>
            <path d="M545.49833,166.9481 C546.77191,166.6081 546.95901,164.9171 547.0017,163.59963 C547.23029,156.54424 551.4788,149.30463 558.23248,147.25069 C560.82399,146.540016 563.537344,146.390689 566.19119,146.81269 C569.979383,147.317257 573.637086,148.537536 576.96942,150.40851 C578.72842,151.39742 580.45378,152.58851 582.44895,152.89051 C583.76662,153.09001 589.472,154.74884 590.78408,154.98229 C593.66883,155.49554 596.34976,158.07655 599.11792,157.1161 C601.76624,156.19724 602.35248,152.76828 602.41649,149.96581 C602.56232,143.58124 597.71554,134.74474 593.44649,129.99511 C590.20684,126.39078 585.32885,124.72698 580.56041,123.86183 C574.990254,122.966804 569.345395,122.623402 563.70782,122.83661 C556.07667,122.97271 548.23399,123.56173 541.35282,126.86361 C534.47165,130.16549 528.69164,136.73711 528.36182,144.36234 C528.29311,145.95075 528.45697,147.54578 528.32342,149.13005 C527.99762,152.99487 525.94536,156.48572 524.98264,160.24287 C523.590849,165.81758 524.622452,171.720901 527.82238,176.49321 C530.37618,180.2515 534.38999,183.65061 534.24238,188.19206 L539.7798,182.45517 C541.484153,181.153812 542.047729,178.838628 541.13219,176.89952 L539.17219,169.25436 C538.668349,167.889522 538.608945,166.400324 539.00247,164.99969 C541.10355,159.8076 543.37487,167.51505 545.49833,166.9481 Z" id="Shape" fill="#2F2E41" fill-rule="nonzero"></path>
            <path d="M292.58257,393.93411 C292.58257,499.88295 229.59767,536.87633 151.90185,536.87633 C74.20603,536.87633 11.22112,499.88295 11.22112,393.93411 C11.22112,287.98527 151.90185,153.20163 151.90185,153.20163 C151.90185,153.20163 292.58257,287.98527 292.58257,393.93411 Z" id="Shape" fill="#F2F2F2" fill-rule="nonzero"></path>
            <polygon id="Shape" fill="#3F3D56" fill-rule="nonzero" points="146.777 520.669 148.218 432 208.179 322.303 148.444 418.09 149.091 378.22 190.417 298.856 149.263 367.67 149.263 367.67 150.428 295.963 194.68 232.779 150.611 284.687 151.339 153.202 146.765 327.264 147.14 320.084 102.149 251.217 146.419 333.868 142.227 413.953 142.102 411.827 90.235 339.355 141.945 419.336 141.421 429.352 141.327 429.502 141.37 430.324 130.734 633.506 144.944 633.506 146.649 528.558 198.232 448.773"></polygon>
        </g>
        <path d="M258.260605,157.831518 L258.260605,126.535518 L265.316605,126.535518 L265.316605,138.583518 L276.116605,138.583518 L276.116605,126.535518 L283.220605,126.535518 L283.220605,157.831518 L276.116605,157.831518 L276.116605,144.775518 L265.316605,144.775518 L265.316605,157.831518 L258.260605,157.831518 Z M296.595845,157.831518 L296.595845,132.487518 L288.003845,132.487518 L288.003845,126.535518 L312.291845,126.535518 L312.291845,132.487518 L303.699845,132.487518 L303.699845,157.831518 L296.595845,157.831518 Z M317.075086,157.831518 L317.075086,126.535518 L324.803086,126.535518 L329.843086,140.455518 C330.467086,142.279518 331.043086,144.295518 331.667086,146.215518 L331.859086,146.215518 C332.483086,144.295518 333.011086,142.279518 333.635086,140.455518 L338.579086,126.535518 L346.259086,126.535518 L346.259086,157.831518 L339.827086,157.831518 L339.827086,146.359518 C339.827086,143.287518 340.403086,138.727518 340.739086,135.703518 L340.547086,135.703518 L338.003086,143.143518 L333.539086,155.095518 L329.651086,155.095518 L325.187086,143.143518 L322.691086,135.703518 L322.499086,135.703518 C322.835086,138.727518 323.411086,143.287518 323.411086,146.359518 L323.411086,157.831518 L317.075086,157.831518 Z M353.538326,157.831518 L353.538326,126.535518 L360.594326,126.535518 L360.594326,151.879518 L372.978326,151.879518 L372.978326,157.831518 L353.538326,157.831518 Z" id="HTML" fill="#2F2E41" transform="translate(315.619466, 142.183518) rotate(-56.000000) translate(-315.619466, -142.183518) "></path>
        <path d="M626.403449,169.03601 C625.443449,162.46001 632.451449,159.72401 632.451449,156.12401 C632.451449,154.15601 631.155449,153.10001 629.235449,153.10001 C627.459449,153.10001 626.163449,154.01201 624.867449,155.30801 L620.979449,151.75601 C623.235449,149.16401 626.403449,147.38801 630.147449,147.38801 C635.283449,147.38801 639.219449,149.93201 639.219449,155.59601 C639.219449,161.54801 632.019449,163.32401 632.595449,169.03601 L626.403449,169.03601 Z M629.475449,180.70001 C627.027449,180.70001 625.251449,178.78001 625.251449,176.28401 C625.251449,173.74001 627.027449,171.82001 629.475449,171.82001 C631.923449,171.82001 633.747449,173.74001 633.747449,176.28401 C633.747449,178.78001 631.923449,180.70001 629.475449,180.70001 Z" id="?" fill="#2F2E41" transform="translate(630.099449, 164.044010) rotate(20.000000) translate(-630.099449, -164.044010) "></path>
        <path d="M575.407291,142.800132 C574.447291,136.224132 581.455291,133.488132 581.455291,129.888132 C581.455291,127.920132 580.159291,126.864132 578.239291,126.864132 C576.463291,126.864132 575.167291,127.776132 573.871291,129.072132 L569.983291,125.520132 C572.239291,122.928132 575.407291,121.152132 579.151291,121.152132 C584.287291,121.152132 588.223291,123.696132 588.223291,129.360132 C588.223291,135.312132 581.023291,137.088132 581.599291,142.800132 L575.407291,142.800132 Z M578.479291,154.464132 C576.031291,154.464132 574.255291,152.544132 574.255291,150.048132 C574.255291,147.504132 576.031291,145.584132 578.479291,145.584132 C580.927291,145.584132 582.751291,147.504132 582.751291,150.048132 C582.751291,152.544132 580.927291,154.464132 578.479291,154.464132 Z" id="?-copy" fill="#2F2E41" transform="translate(579.103291, 137.808132) rotate(-5.000000) translate(-579.103291, -137.808132) "></path>
        <path d="M514.407291,163.800132 C513.447291,157.224132 520.455291,154.488132 520.455291,150.888132 C520.455291,148.920132 519.159291,147.864132 517.239291,147.864132 C515.463291,147.864132 514.167291,148.776132 512.871291,150.072132 L508.983291,146.520132 C511.239291,143.928132 514.407291,142.152132 518.151291,142.152132 C523.287291,142.152132 527.223291,144.696132 527.223291,150.360132 C527.223291,156.312132 520.023291,158.088132 520.599291,163.800132 L514.407291,163.800132 Z M517.479291,175.464132 C515.031291,175.464132 513.255291,173.544132 513.255291,171.048132 C513.255291,168.504132 515.031291,166.584132 517.479291,166.584132 C519.927291,166.584132 521.751291,168.504132 521.751291,171.048132 C521.751291,173.544132 519.927291,175.464132 517.479291,175.464132 Z" id="?-copy-2" fill="#2F2E41" transform="translate(518.103291, 158.808132) rotate(-32.000000) translate(-518.103291, -158.808132) "></path>
        <path d="M461.70196,63.0552145 C453.78196,63.0552145 447.15796,57.5352145 447.15796,47.0232145 C447.15796,36.6552145 454.02196,30.6072145 461.94196,30.6072145 C465.97396,30.6072145 469.23796,32.5272145 471.34996,34.6872145 L467.60596,39.1992145 C466.02196,37.7592145 464.34196,36.7032145 462.08596,36.7032145 C457.81396,36.7032145 454.40596,40.4952145 454.40596,46.7832145 C454.40596,53.2152145 457.38196,56.9592145 461.98996,56.9592145 C464.53396,56.9592145 466.54996,55.6632145 468.08596,54.0312145 L471.82996,58.4472145 C469.23796,61.4712145 465.78196,63.0552145 461.70196,63.0552145 Z M484.677201,63.0552145 C480.597201,63.0552145 476.277201,61.5192145 473.109201,58.5432145 L477.141201,53.6952145 C479.397201,55.6152145 482.277201,56.9592145 484.869201,56.9592145 C487.797201,56.9592145 489.237201,55.8072145 489.237201,53.9352145 C489.237201,51.9672145 487.461201,51.3432145 484.725201,50.1912145 L480.645201,48.4632145 C477.429201,47.1672145 474.357201,44.4792145 474.357201,39.9192145 C474.357201,34.7352145 478.965201,30.6072145 485.493201,30.6072145 C489.093201,30.6072145 492.885201,32.0472145 495.573201,34.7352145 L491.973201,39.1992145 C489.909201,37.6152145 487.989201,36.7032145 485.493201,36.7032145 C483.045201,36.7032145 481.509201,37.7592145 481.509201,39.5352145 C481.509201,41.4552145 483.573201,42.1272145 486.261201,43.2312145 L490.293201,44.8632145 C494.085201,46.3992145 496.485201,48.9432145 496.485201,53.3592145 C496.485201,58.5432145 492.165201,63.0552145 484.677201,63.0552145 Z M510.388441,63.0552145 C506.308441,63.0552145 501.988441,61.5192145 498.820441,58.5432145 L502.852441,53.6952145 C505.108441,55.6152145 507.988441,56.9592145 510.580441,56.9592145 C513.508441,56.9592145 514.948441,55.8072145 514.948441,53.9352145 C514.948441,51.9672145 513.172441,51.3432145 510.436441,50.1912145 L506.356441,48.4632145 C503.140441,47.1672145 500.068441,44.4792145 500.068441,39.9192145 C500.068441,34.7352145 504.676441,30.6072145 511.204441,30.6072145 C514.804441,30.6072145 518.596441,32.0472145 521.284441,34.7352145 L517.684441,39.1992145 C515.620441,37.6152145 513.700441,36.7032145 511.204441,36.7032145 C508.756441,36.7032145 507.220441,37.7592145 507.220441,39.5352145 C507.220441,41.4552145 509.284441,42.1272145 511.972441,43.2312145 L516.004441,44.8632145 C519.796441,46.3992145 522.196441,48.9432145 522.196441,53.3592145 C522.196441,58.5432145 517.876441,63.0552145 510.388441,63.0552145 Z" id="CSS" fill="#2F2E41" transform="translate(484.677201, 46.831215) rotate(11.000000) translate(-484.677201, -46.831215) "></path>
        <path d="M698.899303,122.561771 C694.147303,122.561771 690.979303,120.689771 688.819303,116.897771 L693.619303,113.345771 C694.771303,115.457771 696.403303,116.465771 697.987303,116.465771 C700.531303,116.465771 701.875303,115.169771 701.875303,110.993771 L701.875303,90.6897708 L708.931303,90.6897708 L708.931303,111.569771 C708.931303,117.617771 705.811303,122.561771 698.899303,122.561771 Z M725.618544,122.561771 C721.538544,122.561771 717.218544,121.025771 714.050544,118.049771 L718.082544,113.201771 C720.338544,115.121771 723.218544,116.465771 725.810544,116.465771 C728.738544,116.465771 730.178544,115.313771 730.178544,113.441771 C730.178544,111.473771 728.402544,110.849771 725.666544,109.697771 L721.586544,107.969771 C718.370544,106.673771 715.298544,103.985771 715.298544,99.4257708 C715.298544,94.2417708 719.906544,90.1137708 726.434544,90.1137708 C730.034544,90.1137708 733.826544,91.5537708 736.514544,94.2417708 L732.914544,98.7057708 C730.850544,97.1217708 728.930544,96.2097708 726.434544,96.2097708 C723.986544,96.2097708 722.450544,97.2657708 722.450544,99.0417708 C722.450544,100.961771 724.514544,101.633771 727.202544,102.737771 L731.234544,104.369771 C735.026544,105.905771 737.426544,108.449771 737.426544,112.865771 C737.426544,118.049771 733.106544,122.561771 725.618544,122.561771 Z" id="JS" fill="#2F2E41" transform="translate(713.122923, 106.337771) rotate(38.000000) translate(-713.122923, -106.337771) "></path>
    </g>
</svg>